<svg xmlns="http://www.w3.org/2000/svg" width="232.999" height="139.008" viewBox="0 0 232.999 139.008"><defs><style>.a{fill:#f2f7fb;fill-rule:evenodd;}</style></defs><g transform="translate(0)"><path class="a" d="M1946.945,4761.572l2.208-20.466a.646.646,0,0,1,.8-.556l6.412,1.688a.639.639,0,0,1,.412.34.649.649,0,0,1,.015.536l-8.342,19.348,20.46,28.169a1.14,1.14,0,0,1,0,1.357l-20.778,28.605a1.162,1.162,0,0,1-1.3.422l-33.468-10.878-28.925,16.7v34.081a1.164,1.164,0,0,1-.582,1l-30.241,17.459a1.161,1.161,0,0,1-1.158,0l-29.65-17.12-29.65,17.12a1.162,1.162,0,0,1-1.158,0l-28.116-16.235-23.753,13.8a.648.648,0,0,1-.88-.237.64.64,0,0,1,.232-.875l23.115-13.431-.839-.483a1.164,1.164,0,0,1-.582-1v-1.72l-24.087,13.647a.644.644,0,0,1-.633-1.121l24.72-14V4826a1.147,1.147,0,0,1,.582-1l30.241-17.465a1.162,1.162,0,0,1,1.158,0l28.749,16.6-3.149-20.872a.642.642,0,0,1,.633-.736h6.628a.658.658,0,0,1,.489.222.651.651,0,0,1,.149.514l-3.17,21,28.451-16.425v-34.081a1.165,1.165,0,0,1,.576-1l30.247-17.459a1.162,1.162,0,0,1,1.158,0l29.418,16.986-3.226-21.391a.648.648,0,0,1,.638-.741h6.628a.649.649,0,0,1,.633.741L1914.831,4772l32.007-10.4C1946.873,4761.592,1946.909,4761.581,1946.945,4761.572Zm-64.816,65.2-29.176-16.848-28.966,16.724v33.617l29.058,16.776,29.084-16.791Zm-60.488-.124-29.053-16.775-29.089,16.791v33.586l29.089,16.791,29.053-16.776Zm-28.837,45.8,24.267-14.1a.642.642,0,1,0-.643-1.111l-24.268,14.094a.644.644,0,0,0,.643,1.116Zm116.289-34.662h8.563a.644.644,0,0,0,0-1.287h-8.562a.644.644,0,0,0,0,1.287Zm-60.5,0h8.563a.644.644,0,0,0,0-1.287h-8.562a.644.644,0,0,0,0,1.287Zm61.126-5.347h7.307a.643.643,0,1,0,0-1.286h-7.307a.643.643,0,1,0,0,1.286Zm-60.5,0h7.307a.643.643,0,0,0,0-1.286h-7.307a.643.643,0,0,0,0,1.286Zm1.2-5.346h4.909a.643.643,0,1,0,0-1.287h-4.909a.643.643,0,1,0,0,1.287Zm60.5,0h4.909a.643.643,0,0,0,0-1.287h-4.909a.643.643,0,1,0,0,1.287Zm1.492-52.678-29.068-16.78-29.084,16.791V4807.9l28.152,16.251-3.155-20.892a.671.671,0,0,1,.149-.514.658.658,0,0,1,.489-.222h6.628a.658.658,0,0,1,.489.222.648.648,0,0,1,.144.514l-3.2,21.18,28.451-16.42Zm-.124,47.332h2.172a.643.643,0,0,0,0-1.286h-2.172a.643.643,0,1,0,0,1.286Zm-60.5,0h2.171a.643.643,0,1,0,0-1.286h-2.171a.643.643,0,0,0,0,1.286Zm28.852-17.934,2.568,17,2.563-17Zm-60.5,0,2.568,17,2.568-17Zm94.6-29.351v33.689l32.012,10.4,19.79-27.241-19.79-27.247Zm-62.264,41.938h.8a.643.643,0,1,0,0-1.287h-.8a.643.643,0,0,0,0,1.287Zm60.494,0h.8a.643.643,0,1,0,0-1.287h-.8a.643.643,0,0,0,0,1.287Zm-1.471-64.966,2.568,17.007,2.563-17.007Zm37,7.652,6.808-15.792-4.961-1.307Z" transform="translate(-1736.138 -4740.531)"/></g></svg>