<svg xmlns="http://www.w3.org/2000/svg" width="176.653" height="176.657" viewBox="0 0 176.653 176.657"><defs><style>.a{fill:#f2f7fb;fill-rule:evenodd;}</style></defs><g transform="translate(0 0)"><path class="a" d="M281,4803.881a65.048,65.048,0,0,1-8.057,30.482l17.78,10.266,3.081-5.334a1.2,1.2,0,1,1,2.079,1.2l-7.582,13.133a1.2,1.2,0,1,1-2.079-1.2l3.3-5.72-17.775-10.259a65.844,65.844,0,0,1-22.223,22.372l10.266,17.78,5.337-3.079a1.2,1.2,0,0,1,1.2,2.079l-13.131,7.58a1.2,1.2,0,0,1-1.2-2.079l5.716-3.3-10.262-17.774a65.071,65.071,0,0,1-30.432,8.262v20.535h6.162a1.2,1.2,0,1,1,0,2.4H208.016a1.2,1.2,0,1,1,0-2.4h6.6V4868.3a65.125,65.125,0,0,1-30.488-8.057l-10.265,17.779,5.337,3.078a1.2,1.2,0,0,1-1.2,2.079l-13.132-7.58a1.2,1.2,0,0,1,1.2-2.079l5.716,3.3,10.263-17.774a65.817,65.817,0,0,1-22.371-22.222l-17.783,10.265,3.081,5.338a1.2,1.2,0,1,1-2.079,1.2l-7.582-13.133a1.2,1.2,0,1,1,2.079-1.2l3.3,5.714,17.774-10.259a65.043,65.043,0,0,1-8.262-30.434H129.672v6.162a1.2,1.2,0,1,1-2.4,0v-15.165a1.2,1.2,0,0,1,2.4,0v6.6H150.2a65.047,65.047,0,0,1,8.057-30.488l-17.78-10.266-3.081,5.34a1.2,1.2,0,1,1-2.079-1.2l7.582-13.127a1.2,1.2,0,1,1,2.079,1.2l-3.3,5.716,17.775,10.265a65.775,65.775,0,0,1,22.223-22.372l-10.266-17.786-5.337,3.083a1.2,1.2,0,0,1-1.2-2.078L178,4722.61a1.2,1.2,0,0,1,1.2,2.079l-5.716,3.3,10.262,17.774a64.944,64.944,0,0,1,30.432-8.261v-20.535h-6.162a1.2,1.2,0,0,1,0-2.4h15.163a1.2,1.2,0,0,1,0,2.4h-6.6V4737.5a65.05,65.05,0,0,1,30.488,8.057l10.265-17.779-5.337-3.083a1.2,1.2,0,0,1,1.2-2.079l13.131,7.585a1.2,1.2,0,0,1-1.2,2.078l-5.716-3.3-10.263,17.774a65.758,65.758,0,0,1,22.371,22.221L289.3,4758.7l-3.081-5.335a1.2,1.2,0,1,1,2.079-1.2l7.582,13.127a1.2,1.2,0,1,1-2.079,1.2l-3.3-5.715-17.773,10.259a65.022,65.022,0,0,1,8.262,30.429h20.533v-6.161a1.2,1.2,0,0,1,2.4,0v15.165a1.2,1.2,0,1,1-2.4,0v-6.6Zm-65.4-63.99A63.007,63.007,0,1,1,152.59,4802.9,63.037,63.037,0,0,1,215.6,4739.891Zm12.578,81.389a6.435,6.435,0,1,0,6.52,6.435A6.482,6.482,0,0,0,228.176,4821.279Zm0,2.4a4.037,4.037,0,1,1-4.119,4.033A4.08,4.08,0,0,1,228.176,4823.681Zm-37.864-14.6a8.684,8.684,0,1,0,8.813,8.685A8.753,8.753,0,0,0,190.311,4809.081Zm0,2.4a6.283,6.283,0,1,1-6.412,6.284A6.352,6.352,0,0,1,190.311,4811.481Zm21.643-31.562a10.68,10.68,0,1,0,10.851,10.679A10.773,10.773,0,0,0,211.954,4779.919Zm0,2.4a8.282,8.282,0,1,1-8.45,8.278A8.37,8.37,0,0,1,211.954,4782.319Z" transform="translate(-127.271 -4714.569)"/></g></svg>