<svg xmlns="http://www.w3.org/2000/svg" width="1124.932" height="997.848" viewBox="0 0 1124.932 997.848"><defs><style>.a{fill:#f2f7fb;fill-rule:evenodd;}</style></defs><path class="a" d="M837.966,1341.322a92.5,92.5,0,0,0,10.244-5.293,18.584,18.584,0,0,0,4.613-3.667c3.147-4.055,4.773-8.1,5.094-33.281a94.547,94.547,0,0,1-7.08-14.669c-1.234-3.136-1.654-9.652-1.776-15.144-1.222-.575-2.987-1.842-6.649-5.338a15.038,15.038,0,0,1-4.226-8.5,62.567,62.567,0,0,1-.664-10.072c-.066-3.551.658-6.936,1.814-8.789a3.012,3.012,0,0,1,2.467-1.681,2.339,2.339,0,0,1,1.062.276c-.321-5.99-.426-13.562.16-17.656,1.062-7.39,7.882-26.256,15.288-32.883s16.2-16.533,32.065-16.738c15.88-.2,21.9,2.318,23.607,3.2a5.1,5.1,0,0,1,2.041,2.456,11.684,11.684,0,0,1,.6,1.715,11.159,11.159,0,0,1,7.627,2.9c3.446,3.225,17.114,9.729,21.34,28.3,4.226,18.546,1.4,32,1.1,33.082-.193.691-1.289,4.381-1.969,7.417a4.468,4.468,0,0,1,.6.078,2.054,2.054,0,0,1,1.565,1.787,37.337,37.337,0,0,1,.354,4.6,17.673,17.673,0,0,1-.907,5.21c-.857,3.014-2.1,6.394-2.666,8.418-.669,2.406-3.8,8.352-6.272,11.7a12.119,12.119,0,0,1-1.825,2.069c-.564,2.611-1.045,5.1-1.272,6.494-.172,1.089-1.283,3.142-2.948,5.62-3.435,5.116-9.2,12.318-12.412,16.632a57.952,57.952,0,0,0-.011,13.353,1.1,1.1,0,0,0,.426.542,5.262,5.262,0,0,0,1.272.708,19.073,19.073,0,0,0,3.534,1c.133-.382.26-.747.376-1.1a1.149,1.149,0,0,1,.691-.73,1.162,1.162,0,0,1,1,.1c13.618,8.264,35.234,14.6,52.978,21.378,12.086,4.613,22.39,9.469,27.369,15.172,7.351,8.419,14.021,28.4,23.84,44.886,1.881,3.158,3.772,6.615,5.614,10.166,32.966,2.755,72.83,6.975,104.734,13.159,21.572,4.181,39.521,9.287,49.328,15.4,36.34,22.667,178.52,112.179,262.822,194.08a1.154,1.154,0,0,1,.254,1.283c20.869,2.362,41.313,3.894,44.233,3.463a1.2,1.2,0,0,1,.592.066c4.889,1.919,57.524,19.37,74.843,26.655a1.152,1.152,0,1,1-.89,2.124c-17.036-7.168-68.266-24.171-74.528-26.528-6.969.548-65.341-4.7-85.684-9.9a1.135,1.135,0,0,1-.537-.3c-11.217-11.388-57.934-54.023-70.2-63.365a1.15,1.15,0,1,1,1.394-1.831c12.23,9.315,58.57,51.59,70.219,63.349,8.43,2.113,23.154,4.242,38.005,5.974-84.252-81.6-225.558-170.544-261.749-193.117-9.646-6.018-27.324-10.979-48.547-15.095-31.362-6.079-70.446-10.255-103.047-13,4.464,8.767,8.6,17.883,11.621,24.548,38.238,3.816,87.239,11.7,113.352,26.312,41.141,23.015,108.13,73.72,109.4,74.682l.028.017c.73.509,1.449,1.034,2.163,1.56q1.195.879,2.373,1.77,2.921,2.207,5.8,4.458,3.476,2.7,6.931,5.454,3.883,3.07,7.738,6.178,9.06,7.285,18.037,14.669,10.753,8.836,21.4,17.8l.066.056a1.189,1.189,0,0,1,.238.2c27.982,23.574,55.749,48.171,63.316,58.172l.116.188c1.637,3.358,1.825,5.869.913,7.711a6.324,6.324,0,0,1-3.12,2.837,25.006,25.006,0,0,1-8.474,1.775c-4.2.327-25.7-1.742-48.819-4.2,5.537,12.948,24.2,50.235,7.2,159.354-17.794,114.209-40.273,146.578-42.613,155.007a1.142,1.142,0,0,1-1.14.841c-19.376-.459-297.408-16.931-330.983-23.021-1.023,21.942-2.179,42.845-2.738,51.938-.288,4.635-.271,10.371-.072,16.644,21.074.68,339.894,11.006,368.662,11.687-1.377-51.839,7.312-136.594,67.6-183.028,26.074-20.078,61.789-33.021,110.536-33.021,33.088,0,56.158,13.281,56.158,13.281a1.151,1.151,0,0,1-1.145,2s-22.612-12.97-55.013-12.97c-48.116,0-83.394,12.721-109.131,32.54-60.119,46.3-68.2,131.178-66.673,182.348a1.153,1.153,0,0,1-1.172,1.184c-19.055-.354-346.88-10.968-369.74-11.71.835,21.97,3.651,49.327,3.546,58.459-.149,12.423-9.779,25.1-13.275,29.039-1.626,1.831-3.015,2.561-4.231,2.705a.072.072,0,0,0-.033.005c.094.359.188.758.276,1.183a59.39,59.39,0,0,1,1.1,7.96,7.834,7.834,0,0,0,.5,1.9,57.448,57.448,0,0,1,2.854,11.7,42.866,42.866,0,0,0,1.919,7.434c1.084,3.7,1.6,7.329-1.305,13.082-1.975,3.905-6.007,5.907-10.6,6.82-6.422,1.278-13.916.432-17.445.432a136.944,136.944,0,0,1-19.929-1.66,20.394,20.394,0,0,1-6.245-1.892,2.314,2.314,0,0,1-.26-.177,11.161,11.161,0,0,1-2.528-2.2,6.181,6.181,0,0,1-1.139-2.937,77.484,77.484,0,0,1-.426-8.341c-.243-8.646,2.063-27.772,3.12-33.951a7.878,7.878,0,0,1-2.085-.105,12.023,12.023,0,0,1-6.184-2.882,37.972,37.972,0,0,1-7.843-9.7,98.153,98.153,0,0,1-8.668-19.26c-.144-.454-.271-.874-.382-1.272-1.942,3.369-4.829,9.16-7.8,15-3,5.908-6.1,11.865-8.38,15.455a14.934,14.934,0,0,1-2.677,3.4,4.484,4.484,0,0,1-2.7.818c-.138.005-.277,0-.42-.005a10.7,10.7,0,0,1-4.807,11.809c-3.4,2.058-6.295,3.96-8.546,4.719a6.172,6.172,0,0,1-2.572.371c.57,5.249,1.5,11.963-.26,16.737-2.025,5.5-7.8,12.34-18.5,13.944-7.229,1.084-23.447.608-33.364-2.727a19.531,19.531,0,0,1-6.427-3.335,6.977,6.977,0,0,1-2.257-3.324l-.105-.409c-.841-3.535-.1-8.4,1.328-13.253a78.24,78.24,0,0,1,7.34-16.948c1.709-2.622,5.935-7.666,7.987-11.6a11.125,11.125,0,0,0,.9-2.13,3.983,3.983,0,0,0,.105-.442c-2.373-2.212-3.562-6.112-3.6-10.93-.055-6.98,2.235-15.936,6.112-23.922a19.045,19.045,0,0,1,7.2-7.666c-.974-3.037-2.279-10.2-3.623-19.139-1.112-7.406-2.257-16.04-3.291-24.542-3.424-.138-8.911-.16-13.192-.968a1.138,1.138,0,0,1-.9-.829,18.735,18.735,0,0,1-.133-4.5c.21-4.857.94-13.347,1.256-24.26,1.04-36.2-2.461-99.214-45.066-144.509-38.731-41.174-81.128-51.849-127.669-52.652-57.724-1-116.854,43.144-139.9,83.14-22.7,39.4-8.558,74.29-.143,85.38a47.749,47.749,0,0,0,7.7,2.323q-.049-1.917-.049-3.833a147.872,147.872,0,1,1,184.48,143.3c-2.929.747-21.86.78-41.656-.005s-40.447-2.4-46.837-4.8a148.041,148.041,0,0,1-95.858-132.3,50.169,50.169,0,0,1-8.845-2.644,1.125,1.125,0,0,1-.182-.077,43.325,43.325,0,0,1-15.311-10.311c-7.057-7.505-12.472-19.138-11.4-37.214,4.059-68.5,29.74-115.055,51.827-136.521,21.519-20.914,21.394-30.422,21.594-33.984.2-3.524.56-28.132,1.019-32.878a46.462,46.462,0,0,1-2.675-5.376c-.946-2.2-.968-6.422-.4-11.439.44-3.861,1.205-8.219,2.061-12.462a1.055,1.055,0,0,1,.024-.122c1.613-7.976,3.541-15.531,4.224-18.607.782-3.523,3.367-12.528,6.048-21.3.011-.044.025-.089.042-.138,2.453-8.015,4.979-15.808,6.272-19.006.96-2.367,3.39-4.624,6.393-6.6a51.6,51.6,0,0,1,2.86-9,17.192,17.192,0,0,1,.846-1.7,4.246,4.246,0,0,1-.916-.492c-.264-.227-.28-.36-.289-.376a.677.677,0,0,1-.035-.083l-.025-.752s35.833-115.923,60.021-155.046c-4.259-2.522-8.989-4.365-11.259-4.314a1.815,1.815,0,0,1-1.28-.348,4.191,4.191,0,0,1-1.13-1.322,16.963,16.963,0,0,1-1.706-4.74,5,5,0,0,1-.1-1.693,1.254,1.254,0,0,1,.547-.8,8.844,8.844,0,0,1,1.8-.752c8.632-2.887,50.043-12.943,64.93-13.778a1.154,1.154,0,0,1,.6-.747c1.475-.736,6.839-1.682,14.742-2.655,17.815-2.2,48.822-4.8,76.553-6.77,2.17-6.914,3.756-12.324,3.983-13.474s1.272-2.411,2.749-3.755c1.809-1.659,4.287-3.584,5.935-6.14,2.854-4.436.4-4.63,13.706-20.106,13.142-15.283,54.51-33.591,55.628-34.083l.216-.072a1.079,1.079,0,0,1,.548,0h.011a1.163,1.163,0,0,1,.481.26l.155.166Zm115.9,820.457a19.037,19.037,0,0,1-4.425.171c-5.133-.365-10.017-3.131-11.865-6.941a3.548,3.548,0,0,0-1.692-1.455,12.488,12.488,0,0,0-5.211-1.09,11.229,11.229,0,0,0-5.094.963,3.06,3.06,0,0,0-1.56,1.5,6.636,6.636,0,0,1-2.384,2.948c-.968.741-2.224,1.46-3.772,2.412a14.42,14.42,0,0,1-3.131,1.389,138.053,138.053,0,0,0,18.657,1.477c3.435,0,10.736.852,17-.393A21.042,21.042,0,0,0,953.867,2161.779Zm-134.409-.326c-.575-.088-1.173-.194-1.786-.31-7.987-1.538-9.414-5.93-11.566-8.695-1.8-2.307-3.346-2.671-5.465-3.054a4.213,4.213,0,0,0-2.589.769,30.872,30.872,0,0,0-5.343,4.166,6.3,6.3,0,0,1-4.879,1.493,11.577,11.577,0,0,1-2-.343,8.893,8.893,0,0,0,.736.575,19.311,19.311,0,0,0,4.967,2.362C799.463,2161.083,811.554,2161.857,819.458,2161.453Zm134.055-47.065a16.777,16.777,0,0,1-2.572-1.687c-2.185-1.355-6.438-2.379-11.179-3.1-7.312-1.128-15.786-1.5-19.945-.984-4.049.5-6.754,2.721-9.4,4.176a15.535,15.535,0,0,1-2,.94c-.857,3.994-3.5,25.278-3.247,34.46.094,3.4.133,5.636.293,7.218a5.122,5.122,0,0,0,.807,2.727,9.053,9.053,0,0,0,2.036,1.721l.155.1a2.052,2.052,0,0,0,.63.161,7.382,7.382,0,0,0,1.621.033,14.3,14.3,0,0,0,5.946-1.831c1.471-.9,2.672-1.582,3.6-2.285a4.505,4.505,0,0,0,1.626-1.946,5.315,5.315,0,0,1,2.655-2.716,13.689,13.689,0,0,1,6.178-1.217,15.028,15.028,0,0,1,6.2,1.327,5.864,5.864,0,0,1,2.749,2.517c1.538,3.175,5.681,5.343,9.951,5.647,4.237.3,7.8-.758,10.316-3.618a13.385,13.385,0,0,0,.614-10.266,45.035,45.035,0,0,1-1.991-7.8,55.01,55.01,0,0,0-2.766-11.272,10.249,10.249,0,0,1-.608-2.616,56.222,56.222,0,0,0-1.051-7.484A10.653,10.653,0,0,0,953.513,2114.388Zm-97.156,1.034c-.708-.149-1.466-.343-2.262-.581-7.323-2.14-18.524-7.616-27.252-8.169-11.765-.741-18.756-1.162-24.863,2.329a10.437,10.437,0,0,1-1.278,3.8c-2.085,3.994-6.361,9.132-8.1,11.792a75.649,75.649,0,0,0-7.052,16.339c-1.233,4.182-1.991,8.375-1.41,11.532a12.49,12.49,0,0,0,3.866,1.057,4.016,4.016,0,0,0,3.142-.885,33.26,33.26,0,0,1,5.786-4.486,6.493,6.493,0,0,1,4.126-1.023c2.672.487,4.6,1,6.87,3.905,1.909,2.461,3.087,6.482,10.183,7.849a34.174,34.174,0,0,0,11.726.476,19.382,19.382,0,0,0,10.659-10.77c1.875-5.078.393-12.484-.066-17.633a1.156,1.156,0,0,1,1.93-.951c.6.548,1.411.42,2.4.088,2.141-.719,4.867-2.555,8.087-4.5A8.488,8.488,0,0,0,856.357,2115.422Zm58.985,1a83.768,83.768,0,0,0-4.038,13.667c-.36,2.212-.376,4.109.138,5.205,1.659,3.545,5.874,7.948,13.8,7.871,7.528-.072,14.625.122,16.273.7,1.776.614,8.557.182,6.781-13.026-1.5-11.106-1.593-12.605-1.593-12.605s-.011.088-.011.094a.2.2,0,0,1-.005.033l-.559-.138c.636-.167.448-.482.138-.559a.574.574,0,0,0-.7.42l.559.139-.564-.133h0a.32.32,0,0,0-.005.055c-.006.005-.017.044,0,.249.033.476.254,2.649,1.593,12.6,1.106,8.2-1.167,10.991-3.28,11.7a3.287,3.287,0,0,1-1.98.083c-1.687-.586-8.955-.83-16.66-.757-7.307.071-11.217-3.944-12.744-7.213-.448-.952-.359-2.6-.044-4.524a81.7,81.7,0,0,1,3.977-13.453.576.576,0,0,0-1.079-.4ZM802.3,2113.552s-4.563,7.987-7.368,14.055a22.608,22.608,0,0,0-2.179,6.162,12.235,12.235,0,0,0,.5,4.845,3.718,3.718,0,0,0,2.987,2.528c2.633.47,19.7,1.206,24.349-.487,1.449-.531,3.125-2.107,4.751-4.22,3.667-4.757,7.185-12.2,7.777-15.438a.577.577,0,0,0-1.134-.21c-.575,3.136-4,10.337-7.556,14.945-1.466,1.9-2.926,3.363-4.237,3.839-4.536,1.648-21.179.9-23.745.437a2.653,2.653,0,0,1-2.118-1.809,11.066,11.066,0,0,1-.426-4.37,21.588,21.588,0,0,1,2.074-5.736c2.782-6.035,7.318-13.972,7.318-13.972a.574.574,0,1,0-1-.57Zm769.642,9.586a144.17,144.17,0,0,1-20.5,6.9c-2.882.736-21.511.7-40.992-.078s-39.83-2.284-46.119-4.646a145.59,145.59,0,1,1,107.61-270.5,1.151,1.151,0,0,0,.9-2.119,147.894,147.894,0,1,0-109.319,274.78c6.388,2.4,27.042,4,46.833,4.8s38.729.752,41.656.006a147.245,147.245,0,0,0,20.831-7.014,1.154,1.154,0,0,0-.9-2.124Zm-754.973-7.667c-.609-.2-1.184-.409-1.7-.608a10.429,10.429,0,0,1-2.334-1.15,1.592,1.592,0,0,1-.547-.669.573.573,0,1,1,1.073-.4c.039.094.177.166.343.271a11.6,11.6,0,0,0,1.881.879c1.117.426,2.489.879,3.91,1.322,4.143-.586,8.109-1.222,8.109-1.222a.577.577,0,0,1,.183,1.139s-2.561.41-5.719.874c1.864.57,3.584,1.106,4.668,1.554a3.488,3.488,0,0,1,1.388.857.688.688,0,0,1-.017.907,1.346,1.346,0,0,1-.536.371,10.676,10.676,0,0,1-1.936.5c-1.687.315-4.165.614-6.77.863,2,1.018,3.916,1.936,5.155,2.478a.576.576,0,0,1-.127,1.1l-6.743,1.239c1.831.83,3.706,1.654,5.387,2.439.061.027.111.05.161.077a.578.578,0,0,1,.255.769.572.572,0,0,1-.758.266l-.182-.089a19.083,19.083,0,0,0-4.724-.78c-5.266-.448-12.417-.387-12.683-.382l-.111-.011h-.011a.645.645,0,0,1-.249-.116l-.017-.011a.705.705,0,0,1-.16-.221l-.005-.022a.566.566,0,0,1-.033-.138v-.011a.594.594,0,0,1,.005-.138l.006-.022a.542.542,0,0,1,.111-.243l.017-.017a.5.5,0,0,1,.221-.16l.022-.011a.5.5,0,0,1,.1-.022l8.867-1.632c-1.305-.625-2.506-1.233-3.5-1.809a8.207,8.207,0,0,1-2.871-2.306.577.577,0,0,1,.022-.6.565.565,0,0,1,.547-.255,55.066,55.066,0,0,0,7.274-.188c-.675-.365-1.316-.73-1.9-1.073a15.024,15.024,0,0,1-2.948-2.052.567.567,0,0,1-.072-.669.577.577,0,0,1,.608-.282,12.163,12.163,0,0,0,2.285-.1C814.049,2115.842,815.465,2115.671,816.969,2115.472Zm-1.7,10.665-4.552.835c2.179.056,4.63.155,6.765.333.155.016.3.027.459.038C817.041,2126.944,816.145,2126.54,815.271,2126.136Zm1.549-4.995c-3,.243-5.93.393-7.794.387a15.249,15.249,0,0,0,1.516.962c1.333.769,3.042,1.6,4.873,2.445l6.577-1.206C820.492,2123.022,818.628,2122.093,816.82,2121.142Zm111.205-8.175c-3.446-1.117-6.261-2.085-6.261-2.085a.572.572,0,0,1-.36-.73.581.581,0,0,1,.736-.359s4.121,1.433,8.452,2.81a64.579,64.579,0,0,0,8.269-1.632.575.575,0,1,1,.492,1.04,48.6,48.6,0,0,1-6.322,1.355,41.173,41.173,0,0,0,7.052,1.781.578.578,0,0,1,.564.542.571.571,0,0,1-.5.6c-1.4.188-4.585.582-7.937.869.243.078.487.161.724.238,2.683.874,5.105,1.532,6.035,1.427a.578.578,0,0,1,.26,1.117,38.808,38.808,0,0,1-5.885,1.106,15.452,15.452,0,0,0,5.166,1.565.575.575,0,0,1,.194,1.117,29.26,29.26,0,0,1-8.994.171c-1.814-.31-4.856-.57-6.759-.94a6.937,6.937,0,0,1-1.466-.4,1.573,1.573,0,0,1-.465-.3.593.593,0,0,1-.144-.581.58.58,0,0,1,.442-.393c.3-.055,3.983-.4,7.943-.868a56.965,56.965,0,0,0-7.074-3.181c-.077-.022-.144-.039-.21-.055a.577.577,0,0,1,.287-1.118c.066.017.133.033.2.055a19.2,19.2,0,0,0,4.209.216,23.173,23.173,0,0,1-4.276-2.08.576.576,0,0,1,.586-.979,2.575,2.575,0,0,0,.8.066,28.656,28.656,0,0,0,2.871-.21C927.1,2113.088,927.555,2113.027,928.025,2112.966Zm3.153,8.363c-2.329.293-4.7.553-6.516.747,1.759.249,3.861.454,5.249.691a28.457,28.457,0,0,0,5.238.232c-1.04-.37-2.174-.846-3.335-1.377C931.6,2121.528,931.388,2121.429,931.178,2121.329Zm-1.825-3.96c-.863.05-1.7.089-2.5.111-.337.011-.669.017-.984.017,1.676.785,3.617,1.764,5.526,2.66,1.665-.21,3.28-.437,4.613-.664-1.023-.254-2.2-.6-3.429-1C931.515,2118.144,930.42,2117.762,929.352,2117.369Zm-109.844-1.083c-2.356.332-4.746.647-6.483.813-.31.033-.6.055-.857.077.415.271.913.57,1.46.891,1.012.6,2.207,1.256,3.44,1.908,3.186-.265,6.411-.63,8.452-1.012a11.708,11.708,0,0,0,1.189-.293c-.1-.05-.2-.1-.31-.144C824.884,2117.9,822.141,2117.1,819.508,2116.285Zm111.028-2.511c-1.306.2-2.594.375-3.745.5-.6.066-1.156.122-1.665.161,1.184.537,2.738,1.162,4.386,1.765,2.428-.15,4.989-.4,7.047-.637C934.806,2115.1,932.649,2114.438,930.536,2113.774Zm60.86-421.512a66.46,66.46,0,0,1-8.131,2.588c-23.027,5.9-64.085,7.2-92.344,6.986-40.278-.3-84.235-3.811-84.235-3.811h-.017c-5.819,32.656-11.394,64.068-11.571,65.086a5.8,5.8,0,0,1-.537,1.72,3.757,3.757,0,0,1-1.676,1.709c-1.139.553-2.987.631-5.8-1.322-.984-.686-1.925-1.322-2.8-1.9.454,13.4,2.788,83.25,2.788,92.466,0,6.245,4.6,31.567,9.647,52.735a1.219,1.219,0,0,1,.11.47c3.109,12.976,6.367,24.315,8.823,28.635a1.153,1.153,0,0,1-2.008,1.134c-1.925-3.385-4.342-11.041-6.8-20.427.077,14.188.437,41.108,2.1,55.65a50.443,50.443,0,0,0,1.195,7.124,4.712,4.712,0,0,0,.758,1.859,1.148,1.148,0,0,1,.315.891c-.443,5.625,3.38,40.406,6.82,63.31,1.267,8.424,2.461,15.228,3.385,18.314a34.662,34.662,0,0,1,4.7-2.007,59.423,59.423,0,0,1,17.042-2.955,1.151,1.151,0,0,1,.011,2.3,57.079,57.079,0,0,0-16.295,2.827c-5.161,1.8-10.216,4.735-12.617,9.674-3.712,7.649-5.929,16.212-5.88,22.9.028,3.688.714,6.787,2.345,8.711a1.144,1.144,0,0,1,.238.011c6.4-3.606,13.734-3.341,26.041-2.561,8.883.559,20.294,6.079,27.75,8.258.769.222,1.493.409,2.163.547a1.176,1.176,0,0,1,.841.155c.31.044.614.083.9.1a2.877,2.877,0,0,0,1.908-.321,12.758,12.758,0,0,0,2.152-2.81c2.257-3.545,5.3-9.431,8.269-15.266,3-5.9,5.913-11.743,7.871-15.128a23.584,23.584,0,0,1,1.521-2.384,1.071,1.071,0,0,1,.193-.249,4.338,4.338,0,0,1,.432-.47,6.2,6.2,0,0,0,1.814-3.562c.537-2.622.332-6.1-.382-10.238-.3-1.753-.9-6.737-1.753-13.358a.909.909,0,0,1-.011-.122c-1.588-12.39-4.01-30.45-6.853-43.829a90.823,90.823,0,0,0-3.5-12.882,10.256,10.256,0,0,0-2.174-3.888,1.153,1.153,0,0,1-.415-.9c.1-6.04,2.7-39.471,2.257-60.982a98.073,98.073,0,0,0-.885-12.617,1.11,1.11,0,0,1-.077-.442c-.017-.111-.039-.221-.055-.326-.349-1.88-.73-3.235-1.328-3.833a1.147,1.147,0,0,1-.337-.835,1.2,1.2,0,0,1,.37-.824,6.351,6.351,0,0,0,1.128-2.207A60.712,60.712,0,0,0,870.9,1898c2.677-12.816,4.784-33.209,3.219-40.168-2.323-10.3-.282-23.06,1.167-27.263.415-1.2.769-5.349,1.117-10.692.835-12.844,1.482-32.374,1.908-35.554.6-4.519,6.687-28.259,7.257-40.129a.969.969,0,0,1,.044-.288l.011-.033a1.149,1.149,0,0,1,.293-.459,1.194,1.194,0,0,1,.47-.276l.028-.005a1.122,1.122,0,0,1,.3-.039h.039a1.058,1.058,0,0,1,.3.05l.033.011a1.121,1.121,0,0,1,.73.758l.011.033a1.239,1.239,0,0,1,.039.288c.005.4.465,38.7,5.88,51.805l.083.475c-.526,16.412-1.018,43.365-.31,49.361a19.031,19.031,0,0,0,2.124,5.725,1.131,1.131,0,0,1,.216.432c1.455,2.8,3.335,5.913,4.956,8.805,2.174,3.877,3.866,7.406,3.866,9.436,0,4.768.531,18.192.531,18.192a1.151,1.151,0,0,1-2.3.094s-.531-13.5-.531-18.286a7.345,7.345,0,0,0-.642-2.472,51.442,51.442,0,0,0-2.937-5.835c-.974-1.737-2.025-3.551-3.026-5.344-.437,14.664-2.08,62.586-4.873,70.955-1.294,3.888-1.748,13.667-1.969,24.431-.338,16.472-.094,35.223-1.1,39.393-1.654,6.876-5.515,31.987-4.884,57.967.841,6.571,1.444,11.5,1.742,13.248.769,4.48.946,8.258.365,11.1a8.487,8.487,0,0,1-2.517,4.8,25.842,25.842,0,0,0,.857,3.142,95.669,95.669,0,0,0,8.446,18.773,35.771,35.771,0,0,0,7.323,9.1,9.763,9.763,0,0,0,5.017,2.384l.094.011a5.744,5.744,0,0,0,2.7-.132,1.2,1.2,0,0,1,.276-.083,16.817,16.817,0,0,0,3.4-1.726c2.473-1.488,5.177-3.2,8.878-3.656,5-.62,16.068-.017,24.227,1.637a27.678,27.678,0,0,1,8.441,2.811l.083.055a17.008,17.008,0,0,0,2.069,1.438,2.483,2.483,0,0,0,1.5.376c.824-.094,1.676-.708,2.776-1.947,3.319-3.745,12.55-15.736,12.694-27.534.11-9.254-2.777-37.2-3.573-59.334a1.292,1.292,0,0,1-.033-.332.9.9,0,0,1,.017-.172c-.227-6.671-.266-12.794.039-17.689.57-9.231,1.759-30.681,2.8-52.989a1.114,1.114,0,0,1,.006-.448l.017-.05c.846-18.242,1.587-37,1.809-50.085-4.143,24.16-10.952,36.251-14.082,41.141a1.153,1.153,0,0,1-1.941-1.245c3.678-5.747,12.462-21.622,15.819-55.788l.005-.017q.348-3.567.62-7.406c2.76-39.742,9.337-101.846,14.127-118.877C991.2,1744.781,991.4,1701.465,991.4,1692.262ZM486.813,1968.856a145.733,145.733,0,0,0,94.343,129.735c6.291,2.362,26.633,3.872,46.119,4.646s38.112.813,40.995.078a145.578,145.578,0,1,0-181.6-141.063q0,2.141.061,4.259Zm1084.848,100.53a96.94,96.94,0,1,1,0-149.753,1.153,1.153,0,0,0,1.466-1.781,99.244,99.244,0,1,0,0,153.309,1.151,1.151,0,1,0-1.466-1.775ZM964.6,2079.524c.454-2.7.166-4.475-.94-5.6-1.045-1.062-2.992-1.631-6.305-1.631-5.714,0-36.014,3.512-46.761,2.495a1.153,1.153,0,0,0-.216,2.3c10.791,1.023,41.235-2.489,46.977-2.489a14.7,14.7,0,0,1,3.219.271,2.911,2.911,0,0,1,1.444.675,1.912,1.912,0,0,1,.47,1.15,9.212,9.212,0,0,1-.155,2.457,1.15,1.15,0,1,0,2.268.381Zm-146.843-6.98c7.611.907,35.671-3.734,47.486-3.507a1.151,1.151,0,1,0,.044-2.3c-11.759-.227-39.681,4.425-47.259,3.518a1.153,1.153,0,0,0-.271,2.29ZM624.726,1868.536a99.247,99.247,0,1,0,99.245,99.247A99.293,99.293,0,0,0,624.726,1868.536Zm0,2.306a96.94,96.94,0,1,1-96.94,96.94A96.985,96.985,0,0,1,624.726,1870.842Zm247.008,46.164c.293,2.838.465,6.233.542,9.989.431,21.019-2.036,53.4-2.246,60.583a14.6,14.6,0,0,1,2.423,4.408,93.417,93.417,0,0,1,3.606,13.236c1.77,8.336,3.38,18.491,4.724,27.96.769-19.841,3.5-36.833,4.812-42.32.99-4.12.7-22.639,1.034-38.906a189.7,189.7,0,0,1,1.305-21.533C886.093,1929.047,879.776,1924.23,871.734,1917.006ZM750.6,1416.773c-27.452,1.953-57.931,4.514-75.525,6.687-5.708.708-10.029,1.344-12.382,1.914a47.376,47.376,0,0,1,9.072,13.2c1.855,4.386,2.533,9.066.664,13.286-4.367,9.862-50.449,92.543-72.566,113.39-21.918,20.659-39.4,35.848-44.564,45.34a1.149,1.149,0,0,1-1.426.525c-1.183-.453-2.129-.83-2.886-1.139a15.541,15.541,0,0,0-.828,1.715,51.779,51.779,0,0,0-2.223,6.438,94.473,94.473,0,0,1,13.445-5.8,52.609,52.609,0,0,1,15-2.257,11.639,11.639,0,0,1,3.46.559,3.663,3.663,0,0,1,1.713,1.173c1.085,1.443,2.735,2.909,3.865,5.9,1.121,2.97,1.743,7.467.667,15.028-2.082,14.63-21.242,52-31.826,70.689-6.531,11.532-12.114,15.692-16.108,17.2a13.893,13.893,0,0,1-6.057.824,9.073,9.073,0,0,1-6.678-3.485l-.114-.133c-.373,7.937-.66,26.948-.832,30.007-.209,3.706.116,13.729-22.289,35.505-21.836,21.223-47.12,67.287-51.133,135.006-1.021,17.225,4.053,28.342,10.779,35.494a39.765,39.765,0,0,0,10.865,8.1c-8.606-14.016-19.334-47.4,2.164-84.705,23.377-40.577,83.382-85.3,141.937-84.29,47.145.813,90.074,11.665,129.308,53.371,43.1,45.826,46.739,109.54,45.688,146.157-.315,10.93-1.045,19.431-1.256,24.293-.055,1.355-.089,2.4-.039,3.109a99.282,99.282,0,0,0,11.682.774c-1.974-16.544-3.451-32.114-3.3-36.523a7.07,7.07,0,0,1-.714-1.548,45.584,45.584,0,0,1-1.521-8.336c-2.3-20.117-2.135-63.858-2.124-65.2-5.111-21.422-9.762-46.944-9.762-53.26,0-5.437-.813-32.01-1.571-55.611-4.265-7.406-21.207-37.507-24.2-42.828-1.665-1.1-3.158-2.025-4.408-2.865-1.287.255-4.544.653-7.007-1.1a7.565,7.565,0,0,1-2.957-5.282c-.479-3.037-.366-8.479-.1-13.49l-6.833-4.475a3.036,3.036,0,0,1-1.428-1.372c-.477-.863-.871-2.395-.168-5.055.339-1.283,1.011-4.287,1.794-7.915-9.67-21.931-12.725-27.214-16.291-51.806-3.585-24.713,2-38.453,26.265-85.518a1.219,1.219,0,0,1,.137-.21c.955-7.727,1.831-14.049,2.17-16.107.774-4.7,1.775-14.309,2.075-17.257-13.511-5.034-26.946-10.559-35.518-14.835a48.324,48.324,0,0,1-8.17-4.817,3.781,3.781,0,0,1-1.684-4.149,41.627,41.627,0,0,1,2.421-8.253c7.378-19.7,29.385-61.872,33.674-73.5C745.495,1432.465,748.3,1424.014,750.6,1416.773Zm285.815,201.154a45.022,45.022,0,0,1-7.639,19.061,17.91,17.91,0,0,1-3.734,4.231c-3.125,1.975-11.964,5.359-14.414,6.178a24.813,24.813,0,0,0-4.065,2.583c-2.246,1.6-4.934,3.629-7.274,5.421a1.189,1.189,0,0,1,.382.47s5.3,12.135,5.238,16.776a1.157,1.157,0,0,1-1.272,1.134c-1.621-.171-5.1-.111-7.085-.055,1.106,3.557,2.8,5.73,4.635,9.121a1.153,1.153,0,0,1,.122.752c-.376,2.035-1.742,3.911-4.032,5.564a23.5,23.5,0,0,1-3.579,2.085c.011,6.433-.055,53.349-4.524,69.245-4.768,16.965-11.295,78.825-14.049,118.413q-.265,3.808-.614,7.362c.769,7.495-.282,36.915-1.582,65.246,31.29,5.946,304.472,22.164,330.07,23.016,3.468-9.663,25.073-43.448,42.281-153.879,17.385-111.565-2.732-147.484-7.539-159.271-29.8-3.2-61.292-6.908-61.292-6.908a1.153,1.153,0,0,1-1.018-1.112l-.161-5.808C1260.982,1645.705,1060.913,1619.841,1036.415,1617.927ZM886.054,1758.017c-2.03,11.234-5.045,23.491-5.459,26.611-.42,3.169-1.062,22.612-1.9,35.4-.365,5.647-.8,10.028-1.233,11.295-1.383,4.01-3.313,16.184-1.1,26,1.61,7.124-.47,28.021-3.208,41.152a52.4,52.4,0,0,1-2.6,9.248,9.85,9.85,0,0,1-.675,1.311,10.719,10.719,0,0,1,.99,2.611c.138.542.266,1.15.382,1.814,7.882,7.224,14.409,12.341,17.169,14.442.094-.387.194-.736.3-1.057,3.158-9.464,4.762-70.031,4.873-74.312a21.763,21.763,0,0,1-2.362-6.389c-.708-6.012-.238-32.916.293-49.46C888.189,1788.35,886.7,1770.556,886.054,1758.017ZM781,1761.2a11.672,11.672,0,0,1-1.222,4.635,4.339,4.339,0,0,1-4.878,2.351,10.867,10.867,0,0,1-4.491-2.157c-1.836-1.333-3.96-3.264-7.03-5.581,4.834,8.579,14.625,25.964,19.653,34.8-.531-16.395-1-30.433-1.106-33.464C781.6,1761.578,781.293,1761.385,781,1761.2Zm-2.3-.022a6.982,6.982,0,0,1-3.308,4.751c1.538.227,2.318-.835,2.76-2.063A10.767,10.767,0,0,0,778.7,1761.175Zm7.013-153.027c-.321,1.693-.647,3.291-.99,5.072l26.461,11.179a5.692,5.692,0,0,1,3.313,2.887,6.347,6.347,0,0,1,.4,3.811c-.841,4.912-22.578,125.111-22.578,125.111l-.005.028c-.337,1.455-.846,2.2-1.532,2.45a2.053,2.053,0,0,1-1.084.061,7.282,7.282,0,0,1-1.881-.73c-1.283-.658-6.195-3.468-8.645-4.873-.044,1.6-.094,3.009-.144,4.165,1.377.8,4.923,2.931,9.365,6.012a7.024,7.024,0,0,0,2.423,1.195,1.63,1.63,0,0,0,1.062-.05,1.461,1.461,0,0,0,.631-.68,3.068,3.068,0,0,0,.3-.968c.005-.033.005-.061.011-.088,0,0,24.077-135.582,24.791-138.762a2.417,2.417,0,0,0-1.018-2.871l-28.934-12.13-.022-.011h-.005Zm-31.24-62.437c-.359,3.507-1.3,12.351-2.034,16.81-.921,5.586-5.848,42.9-5.458,53.692.392,10.858-1.618,53.52-2.745,68.8a44.683,44.683,0,0,0,.407,9.276,1.124,1.124,0,0,1,.032.221c.337,2.373.8,4.641,1.266,6.643a1.122,1.122,0,0,1,.048.2c.658,2.793,1.323,5.061,1.672,6.394.965,3.684,0,15.681,0,15.681l0,.017s-.235,2.334-.485,5.62a1.13,1.13,0,0,1-.016.216c-.107,1.416-.216,3-.309,4.64a1.161,1.161,0,0,1-.015.266c-.28,5-.415,10.5.064,13.541a5.371,5.371,0,0,0,2.018,3.761,5.516,5.516,0,0,0,3.034.94,5.021,5.021,0,0,1-1.8-3.64,1.152,1.152,0,0,1,2.3,0c0,.951.676,1.676,1.687,2.506.382.315.8.631,1.267.957a.654.654,0,0,1,.127.088c1.084.746,2.373,1.549,3.822,2.489a1.148,1.148,0,0,1,1.189.57l.183.332c.813.536,1.654,1.117,2.533,1.753,1.1.791,2.085,1.543,2.981,2.251a5.844,5.844,0,0,1-.531-2.152c-.033-1.339.077-6.073-.017-10.089a3.761,3.761,0,0,0-2.29-1.482,1.152,1.152,0,0,1-.691-1.87,2.236,2.236,0,0,0,.348-1.084,12.08,12.08,0,0,0,.066-2.24,56.934,56.934,0,0,0-1.654-9.657,1.153,1.153,0,0,1,2.179-.736s3.374,8.2,3.971,11.693a38.919,38.919,0,0,1,.349,4.851,1.244,1.244,0,0,1,.005.249c.105,4.1,0,8.938.039,10.3a4.474,4.474,0,0,0,.714,2.03,31.278,31.278,0,0,0,3.048,4.054,1.776,1.776,0,0,0,1.914.548c1.372-.382,2.622-1.9,2.871-4.2.044-.415.089-1.1.133-2,0-.044.006-.083.006-.122.321-6.554.586-24.2-.066-36.1a74.766,74.766,0,0,0-.83-8.49,6.09,6.09,0,0,0-.658-2.262c-3.053-3.711-7.025-7.672-7.572-14.016-.531-6.178.033-23.369,2.24-29.216,2.157-5.719,9.79-38.365,11.35-47.8,1.012-6.106,1.759-9.342,2.533-13.6a.427.427,0,0,1,.011-.077c.42-2.312.841-4.928,1.316-8.468,1.195-8.927,7.163-33.879,8.6-39.792a140.95,140.95,0,0,1-13.922-3.695C772.3,1552.056,763.427,1549.008,754.472,1545.712Zm30.029,68.665c-.326,1.715-.675,3.628-1.062,5.963-1.571,9.519-9.292,42.463-11.466,48.232-2.13,5.647-2.611,22.241-2.1,28.2.5,5.8,4.259,9.359,7.052,12.749a4.3,4.3,0,0,1,.7,1.416,28.694,28.694,0,0,1,.913,5.282c.924,8.988.907,25.438.675,35.61,2.163,1.244,7.76,4.452,9.137,5.161a7.36,7.36,0,0,0,1.366.575,1.17,1.17,0,0,0,.68.033.778.778,0,0,0,.382-.393,4.872,4.872,0,0,0,.415-1.223c.277-1.521,21.743-120.2,22.573-125.083a5.186,5.186,0,0,0-.31-3.131,4.459,4.459,0,0,0-2.616-2.273.294.294,0,0,1-.072-.028Zm-19.1,128.385a8.367,8.367,0,0,1-.243,1.416c.144.066.277.138.409.21C765.518,1743.768,765.462,1743.221,765.4,1742.762Zm-20.575-13.01-4.093-2.229a4.261,4.261,0,0,1-2.068-2.517,4.131,4.131,0,0,1-.1-1.676c-.091.382-.172.7-.238.957-.753,2.854.265,3.706.287,3.723a.957.957,0,0,1,.233.116l5.835,3.822C744.72,1731.19,744.771,1730.455,744.821,1729.752Zm568.531-41.29a20.376,20.376,0,1,0,17.849,22.623A20.391,20.391,0,0,0,1313.352,1688.462ZM744.934,1706.5c-1.252,5.669-3.273,14.63-3.939,16.516a2.279,2.279,0,0,0-.115,1.372,1.808,1.808,0,0,0,.882,1.073l.065.033,3.185,1.731c.193-2.406.349-3.988.348-3.988s.986-11.405.068-14.906C745.3,1707.843,745.131,1707.229,744.934,1706.5Zm568.147-15.753a18.07,18.07,0,1,1-20.062,15.836A18.077,18.077,0,0,1,1313.081,1690.751Zm-59.51-4.215a20.374,20.374,0,0,1,31.81,19.149l-2.246,19.088a1.151,1.151,0,0,1-1.278,1.012l-7.638-.9a1.152,1.152,0,0,1-1.007-1.283l2.246-19.088a10.389,10.389,0,0,0-9.093-11.527,6.541,6.541,0,0,0-7.257,5.73l-2.7,22.9a1.155,1.155,0,0,1-1.278,1.012l-7.639-.9a1.155,1.155,0,0,1-1.012-1.278l2.251-19.088a10.39,10.39,0,0,0-9.1-11.527,6.548,6.548,0,0,0-7.257,5.73l-2.694,22.9a1.156,1.156,0,0,1-1.283,1.012l-7.633-.9a1.152,1.152,0,0,1-1.012-1.278l3.6-30.544a1.127,1.127,0,0,1,.31-.658,20.367,20.367,0,0,1,29.907.426Zm.559,2.45a1.179,1.179,0,0,1-.42.221,1.15,1.15,0,0,1-1.217-.387,18.062,18.062,0,0,0-26.9-1.394l-3.418,29.011,5.349.631,2.566-21.766a8.846,8.846,0,0,1,9.813-7.749,12.7,12.7,0,0,1,11.118,14.082l-2.113,17.949,5.343.631,2.567-21.765a8.847,8.847,0,0,1,9.813-7.75,12.691,12.691,0,0,1,11.118,14.083l-2.113,17.948,5.349.631,2.113-17.949a18.064,18.064,0,0,0-28.967-16.428Zm-510.676,11.582c-1.366,6.56-3.556,16.987-4.671,21.8.013-.039.026-.077.04-.116.911-2.577,4.378-18.573,4.845-20.731C743.6,1701.205,743.524,1700.89,743.454,1700.569Zm569-4.469a12.684,12.684,0,1,0,11.118,14.083A12.691,12.691,0,0,0,1312.45,1696.1Zm-787.056,17.921a18.315,18.315,0,0,0,1.756,2.417,6.893,6.893,0,0,0,5.018,2.7,11.764,11.764,0,0,0,5.168-.68c3.73-1.411,8.818-5.41,14.918-16.185,10.468-18.48,29.491-55.406,31.55-69.876.994-6.986.495-11.145-.541-13.883-1.026-2.721-2.568-4.016-3.553-5.332a1.819,1.819,0,0,0-.993-.5,10.909,10.909,0,0,0-2.417-.31,49.477,49.477,0,0,0-14.139,2.118,88.975,88.975,0,0,0-13.9,6.1c-.341.2-.677.4-1.008.6a1.162,1.162,0,0,1-1.037.658c-2.467,1.626-4.488,3.429-5.282,5.393-.866,2.135-2.289,6.355-3.87,11.311a3.89,3.89,0,0,1,3.5-1.233,4.934,4.934,0,0,1,3.012,1.975,6.773,6.773,0,0,1,.6,5.337c-.674,3.048-9.807,36.3-9.944,39.089-.106,2.146-1.342,6.449-3.268,8.568a3.771,3.771,0,0,1-3.706,1.422,5.526,5.526,0,0,1-3.542-2.832c-.052-.094-.1-.183-.15-.276-.472,2.649-.875,5.254-1.149,7.661-.514,4.5-.626,8.291.223,10.266a43.039,43.039,0,0,0,2.693,5.376A.908.908,0,0,1,525.394,1714.021Zm786.785-15.631a10.382,10.382,0,1,1-11.521,9.093A10.384,10.384,0,0,1,1312.179,1698.39ZM1218,1686.133a1.151,1.151,0,0,0-1.012-1.278,8.842,8.842,0,0,0-9.812,7.744l-2.7,22.916a1.149,1.149,0,0,0,1.012,1.278l7.633.9a1.147,1.147,0,0,0,1.278-1.007Zm-2.439.974a6.548,6.548,0,0,0-6.1,5.763l-2.567,21.771,5.349.625Zm-146.057,10.808-1.095,9.32a8.844,8.844,0,0,1-9.818,7.744,1.147,1.147,0,0,1-1.007-1.278l4.049-34.365a20.369,20.369,0,1,1,7.871,18.58Zm119.026-1.593,8.839-16.129a20.4,20.4,0,0,1,20.41-10.725l1.007.116a1.155,1.155,0,0,1,1.012,1.278l-.9,7.639a1.155,1.155,0,0,1-1.278,1.012l-1.012-.122a10.389,10.389,0,0,0-10.067,4.89l-15.227,27.789a5,5,0,0,1-9.127-1.073c0-.006-.006-.017-.006-.022L1174.1,1681.4a1.15,1.15,0,0,1,1.245-1.444l3.081.359a8.758,8.758,0,0,1,7.528,6.566Zm-128.512,16.4a6.539,6.539,0,0,0,6.1-5.758l1.35-11.455a1.165,1.165,0,0,1,.332-.686h0a1.152,1.152,0,0,1,1.61-.017,18.068,18.068,0,1,0-5.492-15.2Zm157.358-40.981a18.075,18.075,0,0,0-17.966,9.531c-.005,0-.005.005-.011.011l-10.216,18.651a1.156,1.156,0,0,1-2.124-.254l-3.33-12.191a6.5,6.5,0,0,0-5.57-4.89l-1.388-.161,7.627,27.905a2.691,2.691,0,0,0,4.906.6l15.228-27.794.028-.044a12.684,12.684,0,0,1,12.185-6.013Zm-470.168-86.984c-21.618,42.153-26.731,55.506-23.339,78.892,3.363,23.182,6.278,29,14.833,48.3,1.619-7.594,3.376-16.112,3.651-17.44a46.722,46.722,0,0,1-.42-9.663c1.122-15.228,3.13-57.735,2.74-68.549C744.465,1610.455,745.793,1596.92,747.212,1584.757Zm413.733,104.2a10.38,10.38,0,1,0-11.56,11.167l11.455,1.35a1.158,1.158,0,0,1,1.012,1.278,8.85,8.85,0,0,1-9.818,7.749l-3.817-.448a20.376,20.376,0,1,1,22.617-17.855l-.343,2.931a5,5,0,0,1-5.548,4.365l-15.272-1.8a8.848,8.848,0,0,1-7.749-9.818,1.153,1.153,0,0,1,1.283-1.007Zm-16.765.349a6.539,6.539,0,0,0,5.763,6.1l15.272,1.8a2.681,2.681,0,0,0,2.987-2.345l.343-2.931a18.07,18.07,0,1,0-20.062,15.836l3.822.448a6.538,6.538,0,0,0,7.019-4.6l-10.211-1.2a12.687,12.687,0,1,1,14.166-12.114,1.159,1.159,0,0,1-1.289,1.1Zm-28.148,8.053,1.35-11.455a10.387,10.387,0,0,1,11.521-9.1,1.153,1.153,0,0,0,1.283-1.007l.9-7.638a1.147,1.147,0,0,0-1.007-1.278,20.384,20.384,0,0,0-22.623,17.849l-2.246,19.094a1.147,1.147,0,0,0,1.007,1.278A8.84,8.84,0,0,0,1116.031,1697.356Zm12.622-28.287a18.081,18.081,0,0,0-18.911,15.93l-2.1,17.849a6.549,6.549,0,0,0,6.1-5.764l1.35-11.455a12.7,12.7,0,0,1,12.932-11.2Zm-94.584-252.81c-1.847-3.562-3.744-7.03-5.631-10.2-9.735-16.356-16.306-36.2-23.6-44.548-4.8-5.5-14.8-10.083-26.45-14.536-17.351-6.621-38.365-12.86-52.126-20.831-.083.227-.172.465-.26.7a.673.673,0,0,1-.044.111c-8.053,21.361-41.827,74.832-41.827,74.832a1.137,1.137,0,0,1-.918.536,1.153,1.153,0,0,1-.962-.443l-45.544-58.421c-.005-.011-.016-.022-.022-.033l-3.208-4.115c-5.9,2.633-41.988,19.127-54.012,33.121-13.137,15.272-10.7,15.471-13.518,19.846-1.759,2.733-4.381,4.823-6.317,6.593a14.234,14.234,0,0,0-1.471,1.5,2.461,2.461,0,0,0-.57,1.012c-.492,2.456-7.083,24.144-12.467,38.746-4.289,11.627-26.3,53.813-33.678,73.51a47.232,47.232,0,0,0-2.172,6.98,4.2,4.2,0,0,0-.116,1.931c.149.393.712.83,1.52,1.41a55.372,55.372,0,0,0,7.072,4.027c8.685,4.336,22.392,9.951,36.08,15.034a.438.438,0,0,1,.088.028c9.37,3.474,18.729,6.7,26.461,9.082a125.462,125.462,0,0,0,14.387,3.778,1.164,1.164,0,0,1,.553,0,1.1,1.1,0,0,1,.321.133,11.453,11.453,0,0,0,1.6.116,1.124,1.124,0,0,1,.8.3c1.14-3.805,2.4-7.362,3.739-10.7-1.482-2.81-2.6-10-3.324-19.243-1.682-21.307-1.56-53.725-.808-67.249,1.062-19.166-10.825-61.75-10.825-61.75a1.151,1.151,0,1,1,2.218-.614s11.981,43.1,10.908,62.492c-.752,13.463-.869,45.732.8,66.939.564,7.135,1.294,13,2.307,16.383,10.139-23.292,24.343-35.295,29.8-44.217,7.251-11.859,6.826-32.319,6.826-32.319a1.151,1.151,0,0,1,2.3-.044s.37,21.246-7.157,33.564c-7.356,12.025-30.848,29.653-38.3,73.493-2.893,17.014-6.151,30.4-7.063,34.017l28.032,11.748a4.394,4.394,0,0,1,1.969,1.847,5.029,5.029,0,0,1,.4,3.656c-.359,1.6-6.637,36.766-12.783,71.275,3.263.254,45.256,3.49,83.864,3.783,28.077.215,68.875-1.051,91.757-6.914a57.748,57.748,0,0,0,9.287-3.1,1.545,1.545,0,0,1,.172-.078,21.934,21.934,0,0,0,3.772-2.141,7.268,7.268,0,0,0,3.026-3.734c-3.391-6.145-6.25-8.623-6-22.479a1.153,1.153,0,1,1,2.306.039,47.579,47.579,0,0,0,.708,10.316c1.516-.044,4.48-.11,6.554-.033-.658-4.972-4.956-14.6-4.956-14.6a.59.59,0,0,0-.028-.061c-1.737,1.339-3.1,2.39-3.645,2.782a18.683,18.683,0,0,1-4.453,2.456,6.911,6.911,0,0,1-3.446.415,3.115,3.115,0,0,1-2.439-2.622l-.05-.249c-1.211,1.228-2.047,2.052-2.345,2.268-2.141,1.566-4.215,2.622-7.628,1.2a4.068,4.068,0,0,1-2.577-3.938c0-.127,0-.243.005-.365a5.246,5.246,0,0,1-.929-.017,8.7,8.7,0,0,1-3.927-1.4,2.088,2.088,0,0,1-.73-1.09,5.3,5.3,0,0,1-.172-1.737,17.029,17.029,0,0,1,2.107-7.235c1.289-1.836,11.333-15.952,14.635-19.365,1.073-1.1,2.517-2.5,3.983-3.888a7.587,7.587,0,0,0-.172-1.659,3.321,3.321,0,0,0-.315-.9.783.783,0,0,0-.337-.376,5.42,5.42,0,0,0-1.532-.255c-.83-.05-1.764-.044-2.472-.027-2.135,1.781-4.878,4.342-7.406,6.56a40.554,40.554,0,0,1-5.459,4.265,3.773,3.773,0,0,1-2,.619,3.955,3.955,0,0,1-3.2-2.545,8.368,8.368,0,0,1-.719-3.346,4.4,4.4,0,0,1,.365-1.941c.68-1.339,8.109-10.421,11.461-13.723,2.085-2.052,5.222-2.76,7.5-3,0-.255-.006-.686-.017-1.278v-.033c-.094-5.885-.553-26.937-2.544-44.67-2.832-25.256-.5-58.282.691-78.217.5-8.369.824-14.387.426-16.434a1.151,1.151,0,0,1,2.157-.741c4.973,9.807,11.892,16.627,19.055,23.253,6.986,6.461,14.2,12.739,20.172,21.279l.011.011v.006c.2.282.4.575.592.863,11.5,2.809,22.888-1.665,30.914-8.048a40.778,40.778,0,0,0,4.74-4.386,1.136,1.136,0,0,1,.116-.122,25.586,25.586,0,0,0,5.736-9.27,7.09,7.09,0,0,0-.088-2.555,56.461,56.461,0,0,0-1.859-7.385c-3.263-10.625-9.326-25.112-10.045-26.826a4.014,4.014,0,0,1-.343-.5c-.359-.6-.907-1.693-1.609-3.186s-1.576-3.418-2.583-5.636a1.107,1.107,0,0,1-.182-.4c-3.208-7.063-7.705-17.008-12.528-26.362A1.14,1.14,0,0,1,1034.069,1416.259Zm49.283,252.86a12.687,12.687,0,1,0,11.118,14.083A12.691,12.691,0,0,0,1083.353,1669.119Zm-.265,2.29a10.381,10.381,0,1,1-11.527,9.093A10.387,10.387,0,0,1,1083.087,1671.409Zm-558.6,14.331a11.847,11.847,0,0,0,1.219,4,3.261,3.261,0,0,0,2.055,1.731,1.135,1.135,0,0,0,.91-.216,4.355,4.355,0,0,0,1.176-1.3,15.121,15.121,0,0,0,2.073-6.344c.139-2.815,9.316-36.39,10-39.471a4.57,4.57,0,0,0-.256-3.546A2.723,2.723,0,0,0,540,1639.56a1.044,1.044,0,0,0-.768.221,6.03,6.03,0,0,0-1.345,1.256,32.275,32.275,0,0,0-3.224,5.216c-2.652,8.673-5.208,17.583-5.982,21.063C528,1670.363,526.092,1677.841,524.491,1685.74Zm748.063-139.083c.7,6.588,1.217,20.587,1.344,24.238a68.984,68.984,0,0,1,23.5,10.437c4.32,3.07,7.168,9.055,8.966,15.549a98.571,98.571,0,0,1,3.048,23.364,1.151,1.151,0,1,1-2.3,0,95.887,95.887,0,0,0-2.97-22.75c-1.637-5.94-4.132-11.477-8.076-14.281a66.753,66.753,0,0,0-23.464-10.26l-.144-.033a59.635,59.635,0,0,0-13.015-1.494c-6.239.011-13.142.443-18.817,2.373-5.387,1.831-9.652,5.022-10.907,10.67-1.875,8.43-3.673,27.562-3.153,39.25a34.256,34.256,0,0,0,.857,7.03c.227.8.415,1.4.769,1.637a10.384,10.384,0,0,0,2.727.924c2.251.564,5.5,1.156,9.325,1.753,10.482,1.643,25.289,3.3,36.08,4.364l.017.006h.017c4.641.459,8.54.807,11.024,1a35.274,35.274,0,0,1,14.143,3.927,14.858,14.858,0,0,0,2.1.9,1.7,1.7,0,0,0,1.095.033,93.477,93.477,0,0,0,17.39-10.919,18.714,18.714,0,0,0,3.269-3.319,2.728,2.728,0,0,0,.6-1.339,1.154,1.154,0,1,1,2.306.072,4.989,4.989,0,0,1-1.018,2.577,20.964,20.964,0,0,1-3.678,3.778,96.8,96.8,0,0,1-18.076,11.311,4.817,4.817,0,0,1-3.723-.426c-2.583-1.123-6.5-3.684-14.58-4.3-2.268-.172-5.7-.476-9.8-.874l.3,10.454c5.5.647,33.1,3.877,59.527,6.72h.005l2.312.249h0l.083.011.166.017.492.05.354.039.127.016.21.022.42.044.332.033.177.022.243.022.365.038.3.033.227.022.288.033.31.033.26.028.271.028.326.033.26.028.221.022.326.039.36.033.21.022.182.022.371.039.4.039.166.022.138.011.426.044.421.044.122.011.1.011.5.055.431.044.078.005.055.005.614.066.4.039.028.005c.365.039.725.072,1.079.111l.028.006.343.033.664.066.055.005.066.011.382.039.531.049.1.011.105.011.359.039.465.05.144.011.144.016.332.033.4.039.188.022.182.017.293.028.354.039.232.022.216.022.255.028.3.028.277.028.249.028.221.022.254.022.321.033.276.028.183.022.21.016.371.039.3.028.144.016.161.017.426.039.321.033.1.011.122.011.492.05.321.033.072.006.077.006.6.061.282.028h.027c.332.033.658.066.985.094l.929.088.039.006.039.006.277.028.564.05.083.011.072.005.293.028.459.044.116.011.1.011.282.022.387.039.161.017.138.011.254.022.332.033.194.017.166.017.227.022.282.022.232.022.194.016.194.017.238.022.265.028.221.017.293.028.061.005.033.005.73.066.066.005h.05l.7.066.061.006.066.005c.232.017.459.039.692.055l.044.005.066.005c.232.022.465.044.691.061l.028.006.227.017.111.011h.05l.3.028.072.006.4.033.365.033h.044l.111.011.216.017.044.006h.028l.116.011.177.017h.061l.044.005.1.011.155.011.072.006.055.006.1.006.133.011.083.006.072.006.088.011.111.006.1.011.083.006.072.005.094.006.116.011.094.006.061.005.072.006.138.011.1.011h.044l.061.006.149.011.111.006.033.006.044.005.177.011.105.006.05.006.216.017.088.005h.005c.116.011.232.017.343.028l.315.022h.028l.088.011.2.011h.028l.022.005.1.006.155.011h.044l.033.006.1.006.133.011h.05l.044.006.088.005.116.011h.061l.061.006.078.005.094.006.077.006.066.005.066.006.077.005.094.005.072.006h.055l.066.005.1.006.083.005.044.006h.05l.116.006.089.005.033.006h.039l.133.011.089.006h.05l.155.011.083.006h.028l.216.011.039.006c.089,0,.177.005.266.011h.005l.066.005.172.011h.111l.133.011h.05l.077.005.11.006h.066l.072.006.094.005h.044l.044.006h.061l.077.006h.105l.05.005h.066l.061.006h.055l.05.005h.05l.072.005h.138l.083.006h.061l.033.005h.122l.066.006h.144l.066.006h.155l.05.005h.194l.171.006h.188l.017.006h.055l-.072-.006h-.321l-.039-.006h-.194l-.05-.005h-.144l-.077-.006h-.127l-.083-.006h-.122l-.094-.005-.122-.006h-.1l-.122-.005-.105-.005-.127-.006-.1-.005-.133-.006-.105-.006-.138-.005-.105-.006-.144-.006-.105-.005-.155-.011h-.094l-.188-.011-.072-.005-.266-.011-.039-.006-.232-.011-.094-.006-.183-.011-.111-.006-.172-.011-.122-.011-.166-.006-.127-.011-.166-.011-.127-.006-.171-.011-.133-.011-.171-.011-.138-.011-.177-.011-.133-.011-.183-.011-.133-.011-.2-.011-.122-.011-.227-.011-.1-.011-.332-.022-.343-.028-.094-.005-.244-.017-.127-.011-.221-.016-.144-.011-.21-.017-.144-.011-.21-.017-.155-.011-.21-.017-.155-.011-.21-.017-.16-.017-.216-.016-.155-.011-.227-.016-.149-.017-.238-.017-.144-.011-.26-.022-.127-.011-.326-.028-.066-.006-.4-.033-.072-.006-.326-.028-.133-.011-.255-.022-.691-.061-.11-.011-.692-.055-.127-.011-.7-.066-.116-.005-.73-.066-.094-.011-.515-.044-.5-.05-.387-.033-.515-.044-.392-.039-.526-.05-.393-.033-.548-.055-.387-.033-.575-.056-.365-.033-.647-.061-.315-.033-.907-.083-.061-.011-.985-.094-.31-.028-.68-.066-.393-.039-.614-.061-.426-.044-.586-.055-.448-.044-.581-.055-.459-.05-.575-.055-.47-.05-.581-.055-.47-.05-.586-.061-.476-.044-.592-.061-.476-.05-.608-.061-.465-.05-.636-.061-.448-.05-.719-.072-.37-.039-1.079-.111-.426-.044-.669-.072-.509-.05-.6-.067-.542-.055-.564-.055-.564-.061-.553-.061-.57-.056-.548-.061-.586-.061-.531-.055-.6-.066-.526-.055-.608-.061-.509-.055-.63-.066-.481-.055-.658-.066-.083-.011-.006-.044-2.307-.2h-.005c-.9-9.63-2.594-56.7-2.8-62.453l-61.906-50.091Zm-214.949-43.9c-.963.918-1.986,1.814-3.07,2.677-8.606,6.836-20.858,11.538-33.187,8.407-1,5.227-3.474,19.005-3.944,30.073-.6,14.083-.924,24.542-2.81,37.911-1.333,9.458-4.193,19.149-6.765,24.553a18.2,18.2,0,0,1-2.013,3.418,4.377,4.377,0,0,1-1.527,1.305,5.614,5.614,0,0,1-2.633.21,66.833,66.833,0,0,1-8.761-1.947c-2.721-.725-5.426-1.461-7.428-1.815a13.684,13.684,0,0,0-1.527-.2v.177c.36.005.57.017.57.017a1.154,1.154,0,0,1-.177,2.3,16.362,16.362,0,0,0-4.375.365,8.619,8.619,0,0,0-4.2,2.063c-3.214,3.164-10.371,11.848-11.024,13.125a2.194,2.194,0,0,0-.116.885,6.175,6.175,0,0,0,.509,2.4c.277.592.641,1.139,1.255,1.206a2.251,2.251,0,0,0,.282-.1,6.6,6.6,0,0,0,.962-.553,46.814,46.814,0,0,0,4.547-3.662c3.1-2.716,6.521-5.941,8.773-7.661a6.509,6.509,0,0,1,2.744-1.449c2.318-.127,6.483-.437,7.915-.387a2.385,2.385,0,0,1,2.251,1.709,4.045,4.045,0,0,1,.216,1.327,1.127,1.127,0,0,1-.382.824s-6.82,6.151-10.083,9.519-13.137,17.279-14.414,19.088a14.189,14.189,0,0,0-1.687,5.99,5.657,5.657,0,0,0,.077.968,6.344,6.344,0,0,0,2.661.879,2.31,2.31,0,0,0,1.394-.188c1.134-1.471,10.637-13.706,18.635-21.859a48.431,48.431,0,0,1,7.168-6.261l.227-.149a8.491,8.491,0,0,1,2.13-1.046l.011-.006a1.152,1.152,0,1,1,.642,2.212,6.861,6.861,0,0,0-1.676.813,42.478,42.478,0,0,0-6.527,5.808c-7.639,7.876-16.771,19.763-18.8,21.943a4.805,4.805,0,0,0-.188,1.366,1.875,1.875,0,0,0,1.156,1.858c2.417,1,3.872.172,5.387-.935.409-.3,1.837-1.759,3.872-3.844a.782.782,0,0,1,.089-.105s9.7-10.515,17.512-17.13a45.575,45.575,0,0,1,5.421-4.049l.028-.017a9.085,9.085,0,0,1,3.158-1.394h.017a1.152,1.152,0,0,1,.343,2.279,3.066,3.066,0,0,0-.675.188,11.048,11.048,0,0,0-1.615.874,49.855,49.855,0,0,0-5.736,4.469c-5.5,4.8-12.069,11.516-16.411,15.969l-.1.1a6.593,6.593,0,0,0,.094,1.975c.088.387.182.808.592.879a4.645,4.645,0,0,0,2.284-.321,16.038,16.038,0,0,0,3.866-2.152c1.372-.99,8-6.223,12.683-9.552a26.909,26.909,0,0,1,4.679-2.9c2.362-.785,10.891-4.032,13.905-5.935a15.916,15.916,0,0,0,3.075-3.6c2.931-4.2,6.626-11.3,7.34-18.839a.8.8,0,0,1-.005-.2,1.019,1.019,0,0,1,.044-.26c.061-.791.089-1.588.077-2.384-.088-7.616,3.048-20.637,4.137-24.9,1.079-4.209,15.25-49.825,16.832-57.143C1057.334,1522.586,1057.594,1508.641,1057.6,1502.756ZM1050,1444.441c.691,1.521,1.311,2.86,1.831,3.977.78,1.648,1.587,3.092,1.654,3.214a1.161,1.161,0,0,1,.266.382s6.693,15.814,10.2,27.214a59.344,59.344,0,0,1,1.925,7.71,9.249,9.249,0,0,1,.039,3.523l-.011.033a27.563,27.563,0,0,1-6,9.9c.028,3.048.094,20.792-2.334,32.048-1.587,7.329-15.775,53.011-16.854,57.226-1.067,4.159-4.154,16.865-4.065,24.3.005.559-.006,1.117-.033,1.67,24.608,1.941,221.6,27.391,238.589,29.586l-.105-3.6c-13-1.3-31.218-3.391-41.086-5.288-3.662-.7-6.223-1.433-7.119-2.041a4.184,4.184,0,0,1-1.405-2.036,30.8,30.8,0,0,1-1.233-8.441c-.52-11.87,1.305-31.29,3.208-39.847,1.444-6.482,6.234-10.255,12.418-12.357,5.9-2.008,13.07-2.484,19.553-2.495a61.261,61.261,0,0,1,12.141,1.261c-.166-5.111-.78-22.02-1.621-25.765-5.044-3.811-69.052-52.026-108.827-74.284C1135.529,1456.012,1087.739,1448.274,1050,1444.441Zm-62.979,178.492c1.991-1.864,3.855-3.562,4.679-4.309a.2.2,0,0,0-.022-.061c-.022-.077-.05-.177-.166-.182-1.383-.05-5.382.254-7.644.382a12.812,12.812,0,0,0-1.311.819c.365.006.736.017,1.09.044a6.482,6.482,0,0,1,1.9.337,2.88,2.88,0,0,1,1.333,2.085A7.74,7.74,0,0,1,987.021,1622.933Zm32.391-111.211c-5.813-8.2-12.81-14.259-19.569-20.515-6.289-5.819-12.373-11.8-17.2-19.7-.055,3.042-.271,7.163-.564,12.069-1.189,19.829-3.523,52.69-.7,77.819,1.875,16.749,2.4,36.434,2.533,43.658.288.011.609.033.951.077a78.926,78.926,0,0,1,8.629,2.008c2.716.724,5.437,1.438,7.484,1.765a11.9,11.9,0,0,0,1.659.166,1.952,1.952,0,0,0,.725-.072,2.232,2.232,0,0,0,.664-.637,16.182,16.182,0,0,0,1.731-2.97c2.5-5.255,5.266-14.686,6.565-23.889,1.875-13.286,2.185-23.685,2.782-37.678C1015.645,1531.054,1018.809,1514.737,1019.412,1511.722ZM660.9,1426.829c-11.778.16-47.42,8.518-61.47,12.462-2.253.63-4.143,1.272-4.957,1.554.028.161.069.343.111.542a15.927,15.927,0,0,0,1.021,3.081,8.424,8.424,0,0,0,.774,1.245,14.8,14.8,0,0,1,4.562.951,45.359,45.359,0,0,1,8.85,4.276l.129.083a33.463,33.463,0,0,1,4.354,3.214c2.434,2.168,3.929,4.508,3.876,6.56a1.153,1.153,0,1,1-2.3-.061,4.1,4.1,0,0,0-.858-2.312,18.3,18.3,0,0,0-4.488-4.243c-.293-.21-.593-.415-.9-.619-22.837,36.938-56.053,142.567-59.479,153.563.657.288,1.772.752,3.66,1.488,5.785-9.652,23-24.769,44.5-45.035,21.967-20.709,67.7-102.853,72.04-112.643,1.612-3.645.92-7.677-.68-11.46A45,45,0,0,0,660.9,1426.829Zm135.01,131.555c-1.339,5.526-7.4,30.77-8.6,39.747-.42,3.147-.8,5.57-1.178,7.694l1.173.492c1-4.021,4.143-17.058,6.942-33.5a137.656,137.656,0,0,1,3.214-14.37,1.042,1.042,0,0,1-.188.017A11.8,11.8,0,0,1,795.906,1558.384Zm538.531,38.1v.083l.741.6,1.637,1.5c.4,11.3,1.941,53.758,2.732,60.556l49.449,4.337-.05.005h-.077l-.033.006h-.061l-.022.006h-.127l-.033.005h-.094l-.039.006h-.238l-.078.006h0c.028,0,.05-.006.078-.006h.238l.028-.006h.122l.033-.005h.111l.017-.006h.072l.044-.006h.061a.158.158,0,0,1,.05-.005,26.878,26.878,0,0,0,6.77-1.195,4.83,4.83,0,0,0,2.937-2.146c.664-1.344.3-3.142-.869-5.576l-61.02-55.976-.006-.183-1.632-1.322ZM904.766,1429.573a1.945,1.945,0,0,1-1.952,1.936l.033-8.75a4.859,4.859,0,1,1,4.84,4.878,4.786,4.786,0,0,1-2.909-.979h0Zm61.264-11.422a4.856,4.856,0,1,1-4.879,4.84A4.859,4.859,0,0,1,966.03,1418.151ZM943.673,1420a4.865,4.865,0,0,1,7.29-.526h0a4.858,4.858,0,0,1,8.247,3.5l-.016,4.862-1.947-.011.022-4.856a2.915,2.915,0,0,0-2.9-2.926,1.945,1.945,0,0,0-1.953,1.936l-.022,5.83-1.947-.006.022-4.862a2.916,2.916,0,0,0-2.9-2.926,1.945,1.945,0,0,0-1.952,1.936l-.022,5.83-1.942-.005Zm-1.941-.006a1.946,1.946,0,0,0-1.953,1.936l-.022,5.83,1.941.006Zm-8.009,1.212a1.918,1.918,0,0,0-1.809-1.25l-.785-.006,2.876,7.2a.97.97,0,0,0,1.787.011l3.031-7.417a2.917,2.917,0,0,1,2.655-1.693h.26l.006-1.941h-.255a4.862,4.862,0,0,0-4.547,3.092l-2.03,4.972Zm-3.667,1.659v.747a.978.978,0,0,1-.979.963l-3.883-.017a1.945,1.945,0,0,1-1.936-1.953l4.845.022a2.913,2.913,0,1,0-2.915,3.131l2.915.011a1.946,1.946,0,0,1-1.953,1.936h-.974a4.859,4.859,0,1,1,4.879-4.84Zm-13.618,2.86a1.937,1.937,0,0,1-1.947,1.936l.017-4.856a4.861,4.861,0,0,1,4.878-4.84l-.006,1.942a2.916,2.916,0,0,0-2.926,2.9Zm49.587-5.636a2.915,2.915,0,1,1-2.926,2.9A2.915,2.915,0,0,1,966.024,1420.092Zm-58.31-.227a2.915,2.915,0,1,1-2.926,2.9A2.912,2.912,0,0,1,907.714,1419.865Zm8.651-107.295a45.653,45.653,0,0,1-9.846,6.947c-5.105,2.738-10.686,4.7-14.84,4.807-8.3.2-8.761-.531-20.8-10.078a53.743,53.743,0,0,1-10.714-11.693c-.47,23.192-2.4,27.186-5.52,31.224a20.973,20.973,0,0,1-5.221,4.2,92.013,92.013,0,0,1-10,5.21l43.636,55.982c5.227-8.341,32.418-52.06,40.278-71.818a17.614,17.614,0,0,1-4.552-1.516,3.974,3.974,0,0,1-2.1-2.372C916.3,1321.863,916.188,1316.47,916.365,1312.571Zm.6-4.2c3.164-4.276,9.01-11.56,12.473-16.715,1.41-2.1,2.439-3.778,2.589-4.7.542-3.4,2.594-13.043,3.75-15.83a1.149,1.149,0,1,1,2.124.879,54.19,54.19,0,0,0-1.825,6.593c.127-.166.26-.343.393-.52,2.4-3.252,5.443-9,6.1-11.328.564-2.03,1.8-5.415,2.666-8.429a16.409,16.409,0,0,0,.863-4.812,35.348,35.348,0,0,0-.326-4.414c-.111-.476-.266-.846-.664-.918a2.667,2.667,0,0,0-.625-.055,12.645,12.645,0,0,0-.31,2.456,4.551,4.551,0,0,1-.8,2.561,10.078,10.078,0,0,1-2.478,2.561,4.36,4.36,0,0,1-1.361.7,1.408,1.408,0,0,1-.669-.005,1.161,1.161,0,0,1-.647-.453,1.358,1.358,0,0,1-.2-.437,4.741,4.741,0,0,1-.094-.9c-.16-4.065.719-24.194-.315-29.476-.442-2.262-2.246-5.609-4.491-9.06-3.446-5.293-7.965-10.8-10.609-13.043a64.044,64.044,0,0,1-5.343-4.746,8.861,8.861,0,0,1-1.4-1.953,14.624,14.624,0,0,1-2.014,1.173c-4.884,2.417-14.68,5.188-23.773,8.43-13.463,4.79-26.71,17.717-31.251,23.181-4.359,5.238-5.155,7.517-5.4,9.9-.21,2.063-.072,5.133-.382,6.5a2.11,2.11,0,0,1-.868,1.389,1.774,1.774,0,0,1-.852.221,6.6,6.6,0,0,1-1.637-.243,24.516,24.516,0,0,1-4.27-1.516,4.394,4.394,0,0,1-1.278-.835,1.578,1.578,0,0,1-.31-.581,15.829,15.829,0,0,1-.376-2.34c-.138-1.283-.282-3.015-.4-4.989a1.728,1.728,0,0,0-1.156-.581c-.575-.005-1.045.453-1.477,1.139-1.073,1.72-1.7,4.867-1.643,8.159a61.485,61.485,0,0,0,.647,9.884,13.911,13.911,0,0,0,3.888,7.876,34.494,34.494,0,0,0,5.83,4.857c-.066-4.37.05-7.793.05-7.793a1.151,1.151,0,1,1,2.3.083s-.675,17.578,1.587,23.326a94.669,94.669,0,0,0,6.367,13.424h.011a1.3,1.3,0,0,1,.315.127,1.134,1.134,0,0,1,.564,1.007l-.005.337a54.171,54.171,0,0,0,12.086,13.977c11.228,8.9,11.566,9.768,19.31,9.575,3.872-.094,9.049-1.981,13.806-4.53s9.1-5.8,11.228-8.7l.282-.382C916.951,1308.395,916.957,1308.384,916.968,1308.372Zm-44.985-27.015h.005c1.919-.155,12.589-1.294,15.211-1.04a30.09,30.09,0,0,1,5.719,1.377,13.6,13.6,0,0,0,2.649-.017,16.489,16.489,0,0,1,3.053.011c4.763.968,12.014,4.032,14.979,4.425l.111.028.1.044.033.022a.6.6,0,0,1,.161.155l.055.1v.005a.583.583,0,0,1,.044.188l-.005.11-.011.055a.576.576,0,0,1-.122.238l-.028.028c-1.654,1.692-7.733,8.562-10.515,10.653a6.38,6.38,0,0,1-2.611.979,25.7,25.7,0,0,1-5.974.282,35.819,35.819,0,0,1-10.26-2.008,12.936,12.936,0,0,1-5.039-3.075c-2.754-3.036-4.845-7.2-6.366-9.68-.216-.349-.415-.664-.609-.935-.537-.547-.9-.918-.94-.968l-.072-.083-.055-.1-.006-.022a.542.542,0,0,1-.033-.233l.017-.111.006-.011a.548.548,0,0,1,.094-.2l.078-.078.033-.028a.5.5,0,0,1,.233-.1Zm4.054,5.515a37.459,37.459,0,0,0,4.359,6.272,11.775,11.775,0,0,0,4.585,2.771,34.691,34.691,0,0,0,9.917,1.936,24.654,24.654,0,0,0,5.7-.26,5.382,5.382,0,0,0,2.135-.769,54.071,54.071,0,0,0,5.166-4.95,22.984,22.984,0,0,1-8.7,3.252,42.191,42.191,0,0,1-7.019-1.134c-.918-.238-5.459-.531-6.709-.89-1.294-.371-5.327-2.041-7.362-4.115Zm-2.428-4.143c1.477,1.516,3.988,4.093,5.321,5.448a19.434,19.434,0,0,0,6.853,3.817c1.25.354,5.769.647,6.687.885a39.823,39.823,0,0,0,6.621,1.1c1.1-.105,7.025-1.178,12.976-6.677-4.4,0-16.112-.431-18.712-.553a73.886,73.886,0,0,1-10.631-1.864C881.679,1284.6,876.38,1283.261,873.609,1282.73Zm-6.283-8.275a13.438,13.438,0,0,0-2.522,2.39,4.073,4.073,0,0,0-1.106,2.743c.326,3.28,3.136,8.618,4.038,10.415a.576.576,0,0,1-.26.774.568.568,0,0,1-.769-.26c-.94-1.864-3.817-7.412-4.154-10.814a5.263,5.263,0,0,1,1.344-3.573,14.1,14.1,0,0,1,3.335-2.992.7.7,0,0,1,.6-.072.576.576,0,0,1,.3.287.581.581,0,0,1-.1.647,2.323,2.323,0,0,1-.382.337A.6.6,0,0,1,867.325,1274.455Zm50.638,4.923c1.493,2.119,3.253,6.2.586,9.956a.576.576,0,1,0,.94.664c3.02-4.254,1.106-8.883-.581-11.278a.576.576,0,0,0-.946.658Zm-8.75,6.748c-3.385-1.1-7.655-2.661-10.824-3.307a15.2,15.2,0,0,0-2.76.011,14.622,14.622,0,0,1-2.97-.011,29.152,29.152,0,0,0-5.564-1.355,96.957,96.957,0,0,0-10.907.653c2.793.625,6.04,1.444,6.842,1.665a72.393,72.393,0,0,0,10.382,1.814C895.551,1285.7,903.948,1286.021,909.213,1286.126Zm-1.543-15.161c-.044-.138-.338-1.106-.686-2.085-1.04-2.943-2.821-7.971-2.9-11.234a.575.575,0,1,1,1.15-.028c.089,3.623,2.362,9.469,3.225,11.992.16.47.277.841.326,1.062a1.358,1.358,0,0,1,.033.387,5.231,5.231,0,0,1-.846,1.864,4.541,4.541,0,0,1-1.925,1.725,2.723,2.723,0,0,1-2.251-.459,6.915,6.915,0,0,0-3.059-1.327c-.807-.011-1.134.6-1.51,1.128a2.652,2.652,0,0,1-2.533,1.5c-1.289-.111-1.853-1.023-2.318-2.074a8.214,8.214,0,0,0-.575-1.173,1.533,1.533,0,0,0-.736-.647,2.9,2.9,0,0,0-1.289-.088c-.564.055-1.167.172-1.759.243-1.405.166-2.743.055-3.628-1.206a3,3,0,0,1-.2-3.092,7.134,7.134,0,0,1,1.72-2.246.575.575,0,1,1,.736.885,5.826,5.826,0,0,0-1.4,1.831,1.9,1.9,0,0,0,.1,1.964c.609.874,1.571.835,2.545.719.73-.088,1.471-.238,2.151-.271a3.618,3.618,0,0,1,1.449.188,3.946,3.946,0,0,1,1.947,2.422c.293.664.559,1.328,1.366,1.4.791.066,1.123-.5,1.488-1.018a2.894,2.894,0,0,1,2.467-1.615,6.529,6.529,0,0,1,3.125,1.189,8.365,8.365,0,0,0,1.123.6.869.869,0,0,0,.636.066,3.315,3.315,0,0,0,1.388-1.289A4.5,4.5,0,0,0,907.67,1270.965Zm32.535-17.717a6.35,6.35,0,0,0,.924-.923,2.756,2.756,0,0,0,.741-1.665c-.089-2.334,2.3-10.631,2.611-11.732.293-1.051,2.948-14.038-1.128-31.948-4.071-17.877-17.357-24.033-20.67-27.136a8.882,8.882,0,0,0-6.787-2.24,1.148,1.148,0,0,1-1.3-.946,10.312,10.312,0,0,0-.669-2.163,2.73,2.73,0,0,0-1-1.355c-1.632-.846-7.379-3.142-22.518-2.943-15.156.193-23.474,9.813-30.554,16.151s-13.529,24.42-14.547,31.489c-.819,5.714-.232,18.353.337,23.524.077.675.194,1.366.249,1.7.188.1.509.276.8.4a33.222,33.222,0,0,0,4.027,1.25c.05-.343.111-.824.127-1.25.066-1.466.044-3.3.182-4.685.271-2.666,1.051-5.282,5.918-11.145,4.685-5.631,18.369-18.933,32.253-23.878,9-3.2,18.7-5.929,23.524-8.319a9.673,9.673,0,0,0,2.135-1.322,2.455,2.455,0,0,0,.321-.382l.022-.276.846-10.034a1.152,1.152,0,1,1,2.3.193l-.835,9.917a2.236,2.236,0,0,1-.022.542,4.323,4.323,0,0,0,1.377,2.649,63.371,63.371,0,0,0,5.133,4.541c2.749,2.329,7.473,8.043,11.051,13.546,2.445,3.75,4.342,7.412,4.823,9.873C940.835,1229.608,940.188,1247.269,940.2,1253.248Zm-23.6-8.313a19.924,19.924,0,0,1,5.714-.448c4.663.5,6.433,1.991,7.965,3.308a10.119,10.119,0,0,0,1.859,1.383.575.575,0,0,1-.443,1.057,32.98,32.98,0,0,0-5.448-.321c-6.405-.094-15.8.133-15.8.133a.569.569,0,0,1-.542-.348.576.576,0,0,1,.122-.636,25.344,25.344,0,0,1,4.381-3.314,7.644,7.644,0,0,1,2-.763A.621.621,0,0,1,916.608,1244.935Zm7.495.99a4.77,4.77,0,0,1,.194,1.969,4.384,4.384,0,0,1-.183.846c.741.006,1.466.011,2.157.022,1.327.017,2.528.055,3.507.111l-.243-.2A10.649,10.649,0,0,0,924.1,1245.925Zm-8.573.547a4.766,4.766,0,0,0-.531.266,24.346,24.346,0,0,0-3,2.124c.94-.022,2.24-.044,3.734-.067A3.264,3.264,0,0,1,915.53,1246.473Zm7.2-.78c-.172-.022-.343-.039-.526-.061a18.278,18.278,0,0,0-5.216.382,2.106,2.106,0,0,0,.166,2.76c1.809-.022,3.794-.039,5.714-.033a2.485,2.485,0,0,0,.288-.973A3.173,3.173,0,0,0,922.726,1245.693Zm-48.05-5.775a.612.612,0,0,1,.2,0,11.845,11.845,0,0,1,4.8,1.211c.017.005.033.017.05.022.166.083.321.16.465.238a34.708,34.708,0,0,1,4.718,3.695.577.577,0,0,1-.437,1,35.484,35.484,0,0,0-4.442,0c-.16.011-.321.017-.492.022a.709.709,0,0,1-.149,0,36.678,36.678,0,0,1-6.267-.525,6.792,6.792,0,0,1-1.914-.553,17.255,17.255,0,0,0-5.537-1.6.574.574,0,0,1-.5-.6.583.583,0,0,1,.559-.553,20.324,20.324,0,0,0,6.178-1.781A6.687,6.687,0,0,1,874.676,1239.918Zm.265,1.134a2.752,2.752,0,0,0-1.178,3.468,36.129,36.129,0,0,0,5.332.437,2.483,2.483,0,0,0-.028-2.843A10.575,10.575,0,0,0,874.942,1241.052Zm5.741,2.019a3.449,3.449,0,0,1-.3,1.842c1-.044,1.87-.05,2.555-.044C882.276,1244.3,881.447,1243.619,880.683,1243.071Zm-7.65-1.77a5.814,5.814,0,0,0-.653.243,24.6,24.6,0,0,1-3.678,1.328,13.736,13.736,0,0,1,3.12,1.178,2.552,2.552,0,0,0,.675.232A4,4,0,0,1,873.034,1241.3Zm37.175-8.147a.586.586,0,0,0-.36.3,8.306,8.306,0,0,0-.714,2.351,2.227,2.227,0,0,0,.885,2.306,2.182,2.182,0,0,0,1.123.216,13,13,0,0,0,2.284-.31c3.4-.68,8.828-2.29,12.645-2.179a9.84,9.84,0,0,1,7.749,4.63.578.578,0,0,0,1.079-.326,15.829,15.829,0,0,0-1.04-4.447,4.987,4.987,0,0,0-3.147-3.186A47.7,47.7,0,0,0,910.209,1233.153Zm23.2,4.928a11.864,11.864,0,0,0-.614-1.942,3.852,3.852,0,0,0-2.351-2.516,46.515,46.515,0,0,0-19.669.57,6.636,6.636,0,0,0-.5,1.737c-.055.476-.061.957.326,1.184a1.032,1.032,0,0,0,.515.061,13.136,13.136,0,0,0,2.08-.287c3.474-.7,9.01-2.318,12.9-2.207A10.522,10.522,0,0,1,933.412,1238.082Zm-73.626-3.275a.576.576,0,0,0,.714.874,68.67,68.67,0,0,1,6.886-3.092,8.563,8.563,0,0,1,2.992-.708,41.945,41.945,0,0,1,12.008,3.756,13.585,13.585,0,0,0,5.055,1.626,2.909,2.909,0,0,0,2.284-.935,1.993,1.993,0,0,0,.492-1.549,1.855,1.855,0,0,0-1.034-1.394A39.273,39.273,0,0,0,870.3,1228.6a10.536,10.536,0,0,0-6.079,2.141A23.418,23.418,0,0,0,859.786,1234.807Zm3.17-1.6c1.244-.581,2.71-1.217,4.038-1.7a9.668,9.668,0,0,1,3.49-.769,43.187,43.187,0,0,1,12.418,3.872,12.337,12.337,0,0,0,4.558,1.5c1.355.022,2.174-1.178,1.184-1.709a38.271,38.271,0,0,0-18.38-4.652,9.371,9.371,0,0,0-5.387,1.942A18.707,18.707,0,0,0,862.956,1233.2Z" transform="translate(-448.614 -1167.879)"/></svg>