<svg xmlns="http://www.w3.org/2000/svg" width="21.916" height="24" viewBox="0 0 21.916 24"><defs><style>.a{fill:#c3c6d1;}</style></defs><g transform="translate(329 -189.9)"><path class="a" d="M-347.225-315.1a.745.745,0,0,1-.743-.7l-.293-4.564c-.645-.193-.684-.271-.723-.928v-.077l-.254-4.8v-.058a.327.327,0,0,1,.254-.329c.547-.155,1.095-.329,1.642-.5a.254.254,0,0,1,.313.1c.313.367.626.735.978,1.122.332-.387.665-.754.977-1.122a.28.28,0,0,1,.332-.1c.547.174,1.095.348,1.642.5a.275.275,0,0,1,.215.348v.058l-.274,4.777v.077c-.039.657-.078.735-.723.928l-.293,4.564a.745.745,0,0,1-.743.7Zm7.8-.019a.745.745,0,0,1-.743-.7l-.293-4.564c-.645-.193-.684-.271-.723-.928v-.077l-.274-4.777v-.058a.327.327,0,0,1,.254-.329c.547-.155,1.095-.329,1.642-.5a.254.254,0,0,1,.313.1c.313.367.626.735.978,1.122.332-.387.665-.754.977-1.122a.254.254,0,0,1,.313-.1c.547.174,1.095.348,1.642.5a.327.327,0,0,1,.254.329v.058l-.274,4.777v.077c-.039.658-.078.735-.723.928l-.293,4.564a.745.745,0,0,1-.743.7Zm-15.543,0a.745.745,0,0,1-.743-.7L-356-320.38c-.645-.193-.684-.271-.723-.928v-.077l-.274-4.777v-.058a.327.327,0,0,1,.254-.329c.547-.155,1.095-.329,1.642-.5a.254.254,0,0,1,.313.1c.313.367.626.735.977,1.122.332-.387.665-.754.978-1.122a.254.254,0,0,1,.313-.1c.547.174,1.095.348,1.642.5a.327.327,0,0,1,.254.329v.058l-.274,4.777v.077c-.039.658-.078.735-.723.928l-.293,4.564a.745.745,0,0,1-.743.7Zm-.606-14.234a1.75,1.75,0,0,1,1.76-1.741,1.75,1.75,0,0,1,1.76,1.741,1.75,1.75,0,0,1-1.76,1.741A1.75,1.75,0,0,1-355.573-329.353Zm15.523-.077a1.75,1.75,0,0,1,1.76-1.741,1.75,1.75,0,0,1,1.76,1.741,1.75,1.75,0,0,1-1.76,1.741A1.75,1.75,0,0,1-340.05-329.431Zm-7.762,0a1.75,1.75,0,0,1,1.76-1.741,1.75,1.75,0,0,1,1.76,1.741,1.75,1.75,0,0,1-1.76,1.741A1.75,1.75,0,0,1-347.811-329.431Zm3.891-4.081a1.75,1.75,0,0,1,1.76-1.741,1.75,1.75,0,0,1,1.76,1.741,1.75,1.75,0,0,1-1.76,1.741A1.75,1.75,0,0,1-343.921-333.511Zm-7.781,0a1.75,1.75,0,0,1,1.76-1.741,1.75,1.75,0,0,1,1.76,1.741,1.75,1.75,0,0,1-1.76,1.741A1.75,1.75,0,0,1-351.7-333.511Zm3.891-3.848a1.75,1.75,0,0,1,1.76-1.741,1.75,1.75,0,0,1,1.76,1.741,1.75,1.75,0,0,1-1.76,1.741A1.75,1.75,0,0,1-347.811-337.36Z" transform="translate(28 529)"/></g></svg>