<svg xmlns="http://www.w3.org/2000/svg" width="24" height="22.932" viewBox="0 0 24 22.932"><defs><style>.a{fill:#c3c6d1;}</style></defs><g transform="translate(125 -229.679)"><path class="a" d="M-147.677-219.354a4.163,4.163,0,0,1-.88-1.427,3.828,3.828,0,0,1-.215-1.579,4.091,4.091,0,0,1,1.21-2.6,3.788,3.788,0,0,1,2.667-1.092h.047a3.789,3.789,0,0,1,2.69,1.151A4.091,4.091,0,0,1-141-222.274a3.829,3.829,0,0,1-.25,1.574,4.166,4.166,0,0,1-.911,1.407l-2.788,2.9Zm.652-3.059a2.2,2.2,0,0,0,.606,1.549,2.1,2.1,0,0,0,1.507.66h.024a2.1,2.1,0,0,0,1.5-.627h0a2.2,2.2,0,0,0,.64-1.535,2.164,2.164,0,0,0-2.113-2.209h-.023A2.165,2.165,0,0,0-147.025-222.413Zm-16.395,3.807a1.582,1.582,0,0,1-1.58-1.58v-11.179h19.78v4.666a4.437,4.437,0,0,0-2.8,1.267,4.748,4.748,0,0,0-1.4,3.021,4.48,4.48,0,0,0,.25,1.849,4.814,4.814,0,0,0,1.016,1.653l.279.3Zm18.515-2.256a1.447,1.447,0,0,1-1.038-.456,1.542,1.542,0,0,1-.424-1.088,1.507,1.507,0,0,1,1.481-1.512h.016a1.506,1.506,0,0,1,1.463,1.545,1.542,1.542,0,0,1-.448,1.079,1.451,1.451,0,0,1-1.034.433Zm-20.1-11.16v-3.318a1.582,1.582,0,0,1,1.58-1.58h.886a1.742,1.742,0,0,0,1.739,1.681h.076a1.742,1.742,0,0,0,1.739-1.681h7.74a1.742,1.742,0,0,0,1.739,1.681h.076a1.742,1.742,0,0,0,1.739-1.681h.886a1.582,1.582,0,0,1,1.58,1.58v3.318Zm15.5-3.875a1.084,1.084,0,0,1-1.083-1.082h0v-1.26a1.084,1.084,0,0,1,1.083-1.082h.076a1.084,1.084,0,0,1,1.083,1.082v1.26a1.084,1.084,0,0,1-1.083,1.082Zm-11.294,0a1.084,1.084,0,0,1-1.083-1.082v-1.26a1.084,1.084,0,0,1,1.083-1.082h.076a1.084,1.084,0,0,1,1.083,1.082v1.26a1.084,1.084,0,0,1-1.083,1.082Z" transform="translate(40 469)"/></g></svg>