<svg xmlns="http://www.w3.org/2000/svg" width="22" height="22" viewBox="0 0 22 22"><defs><style>.a{fill:#c3c6d1;}</style></defs><g transform="translate(187.849 -421.151)"><path class="a" d="M11,22a11.087,11.087,0,0,1-2.217-.223A10.941,10.941,0,0,1,4.85,20.121a11.034,11.034,0,0,1-3.985-4.84,10.936,10.936,0,0,1-.641-2.065,11.1,11.1,0,0,1,0-4.434,10.992,10.992,0,0,1,3-5.561A11.016,11.016,0,0,1,6.719.865,10.942,10.942,0,0,1,8.783.224a11.105,11.105,0,0,1,4.434,0A10.945,10.945,0,0,1,17.15,1.879a11.033,11.033,0,0,1,3.985,4.84,10.954,10.954,0,0,1,.641,2.065,11.119,11.119,0,0,1,0,4.434,10.94,10.94,0,0,1-1.655,3.933,11.029,11.029,0,0,1-4.84,3.985,10.941,10.941,0,0,1-2.065.641A11.085,11.085,0,0,1,11,22ZM5.6,10.055,3.86,11.791l4.8,4.815L18.14,7.131,16.4,5.394,8.67,13.128Z" transform="translate(-187.849 421.151)"/></g></svg>