<svg xmlns="http://www.w3.org/2000/svg" width="60" height="60" viewBox="0 0 60 60"><defs><style>.a{fill:#e1f7f2;}.b{fill:#50e3c2;stroke:rgba(0,0,0,0);stroke-miterlimit:10;}</style></defs><path class="a" d="M30,0A30,30,0,1,1,0,30,30,30,0,0,1,30,0Z"/><g transform="translate(17.5 18)"><path class="b" d="M-12421.5-6418a12.015,12.015,0,0,1-12-12,12.015,12.015,0,0,1,12-12,12.015,12.015,0,0,1,12,12A12.015,12.015,0,0,1-12421.5-6418Zm0-20.317a.945.945,0,0,0-.942.946v8.31a.948.948,0,0,0,.942.927h5.545a.942.942,0,0,0,.927-.945v-.019a.945.945,0,0,0-.942-.923h-4.587v-7.368A.947.947,0,0,0-12421.5-6438.316Z" transform="translate(12433.5 6442)"/></g></svg>