<svg xmlns="http://www.w3.org/2000/svg" width="26" height="26" viewBox="0 0 26 26"><defs><style>.a{fill:none;}.b,.c{fill:#fff;}.b{opacity:0;}</style></defs><g transform="translate(299.298 1.861)"><rect class="a" width="24" height="24" transform="translate(-0.298 0.139)"/><g transform="translate(-299.298 -1.861)"><rect class="b" width="26" height="26"/><path class="c" d="M21.326,7.752,18.243,4.668a2.249,2.249,0,0,0-2.993-.079L5.126,14.718a2.251,2.251,0,0,0-.641,1.362L4,20.773A1.122,1.122,0,0,0,5.126,22h.1l4.691-.428a2.25,2.25,0,0,0,1.361-.642L21.4,10.8a2.161,2.161,0,0,0-.079-3.05ZM17.5,11.511,14.486,8.495l2.194-2.251,3.071,3.072Z" transform="translate(0 0)"/></g></g></svg>