<svg xmlns="http://www.w3.org/2000/svg" width="101" height="35" viewBox="0 0 101 35"><defs><style>.a,.d{fill:#e5ecf3;}.a{stroke:#cfdce6;stroke-width:2px;}.b,.c,.e{fill:#272140;}.b{font-size:19px;}.b,.c{font-family:Roboto-Black, Roboto;font-weight:800;}.c{font-size:18px;text-decoration:underline;}.f,.h{stroke:none;}.g{fill:none;}.h{fill:#cfdce6;}</style></defs><g transform="translate(-565 -37)"><g class="a" transform="translate(565 37)"><rect class="f" width="35" height="35"/><rect class="g" x="1" y="1" width="33" height="33"/></g><text class="b" transform="translate(576 41)"><tspan x="0" y="20">B</tspan></text><g class="a" transform="translate(598 37)"><rect class="f" width="35" height="35"/><rect class="g" x="1" y="1" width="33" height="33"/></g><text class="c" transform="translate(609 41)"><tspan x="0" y="19">U</tspan></text><g class="d" transform="translate(631 37)"><path class="f" d="M 34 34 L 1 34 L 1 1 L 34 1 L 34 34 Z"/><path class="h" d="M 2 2 L 2 33 L 33 33 L 33 2 L 2 2 M 0 0 L 35 0 L 35 35 L 0 35 L 0 0 Z"/></g><path class="e" d="M13.024,1.59,2,12.614V16.59H16.7V15.12H7.446L17,5.566Zm1.9,3.976L13.759,6.734l-1.9-1.9,1.169-1.169ZM3.47,15.12v-1.9l7.349-7.349,1.9,1.9L5.373,15.12Z" transform="translate(639 45.41)"/></g></svg>