<svg xmlns="http://www.w3.org/2000/svg" width="24" height="24" viewBox="0 0 24 24"><defs><style>.a{fill:#f5a623;}.b{fill:#fff;}</style></defs><circle class="a" cx="12" cy="12" r="12"/><circle class="a" cx="12" cy="12" r="12"/><path class="b" d="M142.342,91.952c.4-2.652-1.695-5.067-1.695-5.067.546,2.25-1.773,3.273-2.475,2.186-1.043-1.615,1.6-1.98.674-4.929a6.334,6.334,0,0,0-3.78-3.878,5.991,5.991,0,0,1,.62,4.426c-.674,2.359-3.962,3.371-3.962,6.481a4.079,4.079,0,0,0,.976,2.779,3.887,3.887,0,0,0,2.932,1.314h.793s-1.581-1.161-.253-2.229a1.526,1.526,0,0,0,.343-2.229c1.618.292,3.737,2.38,1.744,4.458h.2A3.915,3.915,0,0,0,142.342,91.952Z" transform="translate(-124.939 -75.323)"/></svg>