<?xml version="1.0" standalone="no"?>
<!DOCTYPE svg PUBLIC "-//W3C//DTD SVG 20010904//EN"
 "http://www.w3.org/TR/2001/REC-SVG-20010904/DTD/svg10.dtd">
<svg version="1.0" xmlns="http://www.w3.org/2000/svg"
 width="161.000000pt" height="46.000000pt" viewBox="0 0 161.000000 46.000000"
 preserveAspectRatio="xMidYMid meet">

<g transform="translate(0.000000,46.000000) scale(0.100000,-0.100000)"
fill="#000000" stroke="none">
<path d="M869 382 c-33 -17 -52 -44 -85 -127 l-16 -40 -19 43 c-17 38 -42 62
-55 50 -9 -9 62 -163 75 -163 7 0 30 42 51 95 30 76 44 99 69 113 53 32 36 57
-20 29z"/>
<path d="M98 321 l-33 -29 -3 -116 c-4 -98 -2 -116 11 -116 18 0 27 21 27 66
0 31 2 34 19 24 39 -20 81 -12 117 24 38 38 44 77 19 126 -30 59 -104 69 -157
21z m115 -29 c22 -19 22 -70 0 -94 -34 -38 -113 -8 -113 43 0 30 18 59 43 68
25 9 44 5 70 -17z"/>
<path d="M364 332 c-12 -9 -27 -27 -33 -39 -13 -27 -15 -153 -1 -153 17 0 30
38 30 88 0 49 20 82 48 82 7 0 12 9 12 20 0 25 -27 26 -56 2z"/>
<path d="M494 332 c-29 -23 -44 -54 -44 -92 0 -43 56 -100 98 -100 40 0 62 9
62 26 0 10 -13 14 -43 14 -52 0 -77 22 -77 67 0 57 68 86 110 48 34 -31 25
-45 -30 -45 -36 0 -50 -4 -50 -14 0 -19 22 -26 80 -26 54 0 63 11 53 60 -13
67 -108 104 -159 62z"/>
<path d="M992 334 c-20 -14 -22 -23 -22 -105 0 -72 3 -89 15 -89 12 0 15 15
15 74 0 65 3 77 21 90 23 16 43 12 72 -12 13 -12 17 -31 17 -84 0 -61 2 -68
20 -68 18 0 20 7 20 70 0 100 35 131 93 82 13 -12 17 -31 17 -84 0 -61 2 -68
20 -68 18 0 20 7 20 65 0 71 -17 117 -49 135 -26 13 -74 13 -106 -2 -21 -9
-31 -9 -46 0 -26 17 -80 15 -107 -4z"/>
<path d="M1388 327 c-50 -47 -49 -118 3 -161 85 -72 203 25 154 127 -28 60
-110 77 -157 34z m115 -35 c39 -34 6 -112 -48 -112 -54 0 -87 78 -47 112 33
29 60 29 95 0z"/>
<path d="M892 298 c-7 -7 -12 -43 -12 -85 0 -66 2 -73 20 -73 18 0 20 7 20 79
0 80 -7 100 -28 79z"/>
</g>
</svg>
