<svg xmlns="http://www.w3.org/2000/svg" width="43" height="43" viewBox="0 0 43 43"><defs><style>.a{fill:none;}.b{fill:#384c61;}</style></defs><g transform="translate(0 0.276)"><rect class="a" width="43" height="43" transform="translate(0 -0.276)"/><path class="b" d="M1.5,23A1.5,1.5,0,0,1,0,21.5V19.193a1.5,1.5,0,0,1,1.5-1.5h25a1.5,1.5,0,0,1,1.5,1.5V21.5A1.5,1.5,0,0,1,26.5,23Zm0-8.846a1.5,1.5,0,0,1-1.5-1.5V10.346a1.5,1.5,0,0,1,1.5-1.5H16a1.5,1.5,0,0,1,1.5,1.5v2.308a1.5,1.5,0,0,1-1.5,1.5Zm0-8.846A1.5,1.5,0,0,1,0,3.808V1.5A1.5,1.5,0,0,1,1.5,0h25A1.5,1.5,0,0,1,28,1.5V3.808a1.5,1.5,0,0,1-1.5,1.5Z" transform="translate(7 8.724)"/></g></svg>