<svg xmlns="http://www.w3.org/2000/svg" width="24.905" height="24" viewBox="0 0 24.905 24"><defs><style>.a{fill:#50e3c2;}</style></defs><path class="a" d="M79.04,84.472l-.3-1.679,2.033-2.686-3.259-4.055-3.232,1.292-1.224-.639L72.14,73.6H66.966l-.919,3.106-1.221.639-3.235-1.292-3.259,4.055,2.033,2.686-.3,1.679L57.1,85.954l1.01,4.837,3.427.3.861,1.188-.384,3.185L66.483,97.6l2.181-2.294h1.778L72.623,97.6l4.469-2.132-.384-3.185.861-1.188,3.427-.3,1.01-4.837Zm-9.487-4.944a2.812,2.812,0,1,1-2.812,2.812A2.816,2.816,0,0,1,69.553,79.529Zm4.886,11.084a.423.423,0,0,1-.422.422H65.089a.423.423,0,0,1-.423-.422V88.505a2.941,2.941,0,0,1,2.941-2.941h.052l.047.027a3.74,3.74,0,0,0,3.7,0l.047-.027H71.5a2.941,2.941,0,0,1,2.941,2.941v2.107Z" transform="translate(-57.1 -73.6)"/></svg>