<svg xmlns="http://www.w3.org/2000/svg" width="25.003" height="25.002" viewBox="0 0 25.003 25.002"><defs><style>.a{fill:#f5a623;stroke:rgba(0,0,0,0);stroke-miterlimit:10;}</style></defs><g transform="translate(0.501 0.501)"><path class="a" d="M-12421.5-6418a12.015,12.015,0,0,1-12-12,12.015,12.015,0,0,1,12-12,12.015,12.015,0,0,1,12,12A12.015,12.015,0,0,1-12421.5-6418Zm0-20.317a.945.945,0,0,0-.942.946v8.31a.948.948,0,0,0,.942.927h5.545a.942.942,0,0,0,.927-.945v-.019a.945.945,0,0,0-.942-.923h-4.587v-7.368A.947.947,0,0,0-12421.5-6438.316Z" transform="translate(12433.5 6442)"/></g></svg>