<svg xmlns="http://www.w3.org/2000/svg" width="319.702" height="24" viewBox="0 0 319.702 24"><defs><style>.a{fill:none;}.b{fill:#fff;}</style></defs><g transform="translate(296 -0.139)"><rect class="a" width="24" height="24" transform="translate(-0.298 0.139)"/><path class="b" d="M18.018,17.588a.987.987,0,0,1-.7-.3L15.026,15H3a3,3,0,0,1-3-3V3A3,3,0,0,1,3,0H16a3,3,0,0,1,3,3v9.01l.025-.01v4.586A1,1,0,0,1,18.018,17.588ZM14.5,6A1.5,1.5,0,1,0,16,7.5,1.5,1.5,0,0,0,14.5,6Zm-5,0A1.5,1.5,0,1,0,11,7.5,1.5,1.5,0,0,0,9.5,6Zm-5,0A1.5,1.5,0,1,0,6,7.5,1.5,1.5,0,0,0,4.5,6Z" transform="translate(-296 3)"/></g></svg>