<svg xmlns="http://www.w3.org/2000/svg" width="24" height="24" viewBox="0 0 24 24"><defs><style>.a{fill:#f389cc;}.b{fill:#fff;}</style></defs><g transform="translate(278.5 -278.308)"><circle class="a" cx="12" cy="12" r="12" transform="translate(-278.5 278.308)"/></g><path class="b" d="M14.906,6.451a5.453,5.453,0,1,0-6.135,5.406v.729H8.09a.682.682,0,0,0,0,1.363h.682v1.363a.682.682,0,0,0,1.363,0V13.949h.682a.682.682,0,1,0,0-1.363h-.682v-.729a5.458,5.458,0,0,0,4.771-5.406Zm-9.543,0a4.09,4.09,0,1,1,4.09,4.09A4.09,4.09,0,0,1,5.363,6.451Z" transform="translate(3 4.006)"/></svg>