<svg xmlns="http://www.w3.org/2000/svg" width="24" height="24" viewBox="0 0 24 24"><defs><style>.a{fill:#e87c60;}.b{fill:#fff;}</style></defs><g transform="translate(278.5 -278.308)"><circle class="a" cx="12" cy="12" r="12" transform="translate(-278.5 278.308)"/></g><g transform="translate(-1)"><path class="b" d="M19.322,11.138h-.891a7.26,7.26,0,0,0,.23-1.332,4.119,4.119,0,0,0-.346-2.195.653.653,0,0,0,.125-.083l.682-.682a.682.682,0,1,0-.964-.964l-.682.682a.636.636,0,0,0-.037.056,3.751,3.751,0,0,0-2.891-.682V5.682a.682.682,0,0,0-1.364,0v.682a.638.638,0,0,0,.013.063,4.1,4.1,0,0,0-1.73,1.929l-.375.875a3.01,3.01,0,0,1-.328.568l-.508-.508a.682.682,0,1,0-.964.964l.438.438c-.074.039-.142.087-.22.12l-.875.375A4.092,4.092,0,0,0,6.978,12.5h-1.3a.682.682,0,1,0,0,1.364h.625c-.011.039-.026.076-.035.115a3.829,3.829,0,0,0,.136,2.288l-.525.525a.682.682,0,1,0,.964.964l.3-.3c.045.05.087.1.136.149A3.16,3.16,0,0,0,9.6,18.4q.233,0,.477-.018c.125-.01.248-.028.372-.044v.3a.682.682,0,0,0,1.364,0v-.6A8.333,8.333,0,0,0,14.6,16.461c.114-.1.218-.2.329-.3l.37.741a.682.682,0,1,0,1.22-.61l-.56-1.12c.265-.276.531-.553.777-.845A8.607,8.607,0,0,0,17.922,12.5c.012,0,.021.007.032.007h1.364a.682.682,0,0,0,0-1.364ZM17.3,9.706a6.563,6.563,0,0,1-1.6,3.739,16.723,16.723,0,0,1-1.978,1.978,6.563,6.563,0,0,1-3.739,1.6,2.375,2.375,0,0,1-1.74-.378q-.1-.1-.188-.2A2.425,2.425,0,0,1,7.6,14.312a2.75,2.75,0,0,1,1.576-1.864l.875-.375a4.357,4.357,0,0,0,2.3-2.3L12.72,8.9a2.75,2.75,0,0,1,1.865-1.581,2.586,2.586,0,0,1,.614-.076,2.382,2.382,0,0,1,1.514.534,2.757,2.757,0,0,1,.208.188,2.368,2.368,0,0,1,.381,1.74Z"/><path class="b" d="M19.02,11h-.01a1.005,1.005,0,1,0,.01,0Zm-2,6h-.01a1,1,0,1,0,.01,0Zm-5,1h-.01a1.005,1.005,0,1,0,.01,0Z" transform="translate(-3.237 -3.342)"/></g></svg>