<svg xmlns="http://www.w3.org/2000/svg" width="24" height="24" viewBox="0 0 24 24"><defs><style>.a{fill:#89df8c;}.b{fill:#fff;}</style></defs><g transform="translate(278.5 -278.308)"><circle class="a" cx="12" cy="12" r="12" transform="translate(-278.5 278.308)"/><path class="b" d="M-10742.861-6481.812a.64.64,0,0,1-.64-.637v-7.564a.641.641,0,0,1,.64-.639h3.127v8.84Zm4.371-.447v-7.978h.256a1.861,1.861,0,0,0,1.084-.766,24.7,24.7,0,0,0,1.245-2.2,3.924,3.924,0,0,0,.224-.67c.127-.383.191-.639.256-.766.51-1.148.893-1.085,1.181-1.021.8.191,1.181,1.021,1.181,2.266a3.766,3.766,0,0,1-.064.479c-.127.447-.445,1.436-.639,2.266l2.234-.1h1.6a1.457,1.457,0,0,1,1.437,1.468,1.422,1.422,0,0,1-.575,1.085,1.236,1.236,0,0,1,.16.765,1.48,1.48,0,0,1-.479,1.054,1.606,1.606,0,0,1,.256.861,1.708,1.708,0,0,1-.83,1.341.962.962,0,0,1,.191.575,1.547,1.547,0,0,1-1.531,1.595H-10733c-.129,0-.607.032-1.4.032A32.292,32.292,0,0,1-10738.49-6482.259Z" transform="translate(10470 6778)"/></g></svg>