<svg xmlns="http://www.w3.org/2000/svg" width="18" height="18" viewBox="0 0 18 18">
  <defs>
    <style>.a {
      fill: none;
    }

    .b {
      fill: #4A90E2;
      fill-rule: evenodd;
    }</style>
  </defs>
  <g transform="translate(-129.399 0.4)">
    <g transform="translate(129.399)">
      <rect class="a" width="18" height="18" transform="translate(0 -0.4)"/>
      <g transform="translate(1.467 1.006)">
        <path class="b"
              d="M138.322,3.656,138.3,2.3h-.158a.446.446,0,0,1,0-.893h1.227a.446.446,0,1,1,0,.893h-.176l.025,1.337a5.355,5.355,0,0,1,1.843.451l.653-1.182-.136-.079a.446.446,0,1,1,.446-.773l1.062.613a.446.446,0,1,1-.446.773l-.153-.088-.644,1.165a5.4,5.4,0,0,1,1.377,1.313l1.147-.692L144.285,5a.446.446,0,1,1,.773-.446l.613,1.062a.446.446,0,1,1-.773.446l-.089-.153-1.129.68a5.293,5.293,0,0,1,.533,1.831l1.331-.025V8.243a.446.446,0,0,1,.893,0V9.47a.446.446,0,0,1-.893,0V9.293l-1.314.025a5.284,5.284,0,0,1-.461,1.851l1.168.645.079-.136a.446.446,0,1,1,.773.446l-.613,1.062a.446.446,0,0,1-.773-.446l.089-.153-1.157-.639a5.4,5.4,0,0,1-1.325,1.365l.7,1.154.137-.079a.446.446,0,0,1,.446.773l-1.062.613a.446.446,0,1,1-.446-.773l.153-.089-.688-1.141a5.359,5.359,0,0,1-1.824.522l.026,1.355h.158a.446.446,0,1,1,0,.893h-1.227a.446.446,0,1,1,0-.893h.177l-.026-1.337a5.371,5.371,0,0,1-1.843-.451l-.653,1.182.136.079a.446.446,0,0,1-.446.773l-1.062-.613a.446.446,0,1,1,.446-.773l.153.089.643-1.165a5.409,5.409,0,0,1-1.376-1.313l-1.147.691.079.137a.446.446,0,1,1-.773.446l-.614-1.062a.446.446,0,0,1,.773-.446l.089.153,1.129-.68a5.3,5.3,0,0,1-.533-1.831L132.2,9.55v.158a.446.446,0,1,1-.893,0V8.481a.446.446,0,1,1,.893,0v.176l1.314-.025a5.292,5.292,0,0,1,.461-1.851L132.8,6.137l-.079.136a.446.446,0,1,1-.773-.446l.613-1.062a.446.446,0,1,1,.773.446l-.088.153L134.407,6a5.386,5.386,0,0,1,1.325-1.365l-.7-1.154-.136.079a.446.446,0,1,1-.446-.773l1.062-.613a.446.446,0,1,1,.446.773l-.153.089.688,1.141A5.348,5.348,0,0,1,138.322,3.656Zm1.926,6.857a.842.842,0,1,1-.843.843A.843.843,0,0,1,140.248,10.513Zm-3.922-1.031a.895.895,0,1,1-.895.895A.895.895,0,0,1,136.326,9.482Zm2.228-3.6A1.316,1.316,0,1,1,137.239,7.2,1.316,1.316,0,0,1,138.554,5.882Z"
              transform="translate(-131.305 -1.409)"/>
      </g>
    </g>
  </g>
</svg>
