<svg xmlns="http://www.w3.org/2000/svg" width="24" height="24" viewBox="0 0 24 24">
  <defs>
    <style>.a {
      fill: none;
    }

    .b {
      fill: #4A90E2;
      fill-rule: evenodd;
    }</style>
  </defs>
  <rect class="a" width="24" height="24"/>
  <g transform="translate(2 4)">
    <path class="b"
          d="M7.549,4.237a5.567,5.567,0,0,1,.226-1.168.615.615,0,0,1,.149-.241.247.247,0,0,1,.212-.065.4.4,0,0,1,.259.223,3.982,3.982,0,0,1,.315.932,6.023,6.023,0,0,1,1.018-.086,6.1,6.1,0,0,1,6.08,6.115q0,.123,0,.245a2.235,2.235,0,0,0,1.085.311h.667a.162.162,0,0,1,0,.324h-.684a2.64,2.64,0,0,1-1.092-.274,6.1,6.1,0,0,1-1.2,3.079l2.745,2.745a.81.81,0,0,1-1.146,1.146l-2.736-2.736a6.048,6.048,0,0,1-2.025,1.036,1.626,1.626,0,0,1-.136.358c-.111.193-.252.229-.382.172a.5.5,0,0,1-.208-.217c-.022-.039-.045-.086-.068-.139a6.071,6.071,0,0,1-4.06-.829,2.547,2.547,0,0,1-.2.635.5.5,0,0,1-.4.316.481.481,0,0,1-.3-.095,1.683,1.683,0,0,1-.379-.4c-.449-.617-.988-1.773-1.57-2.646a3.983,3.983,0,0,0-.684-.823,1,1,0,0,0-.4-.226h-.7a.162.162,0,0,1,0-.324h.721l.033,0a1.306,1.306,0,0,1,.562.3,4.31,4.31,0,0,1,.745.891c.579.87,1.115,2.022,1.562,2.636a1.638,1.638,0,0,0,.257.292.225.225,0,0,0,.141.071A.092.092,0,0,0,6,15.758a.451.451,0,0,0,.073-.107,2.509,2.509,0,0,0,.2-.675A6.132,6.132,0,0,1,7.549,4.237Zm3.5,11.681-.095.02a.638.638,0,0,0,.046.079.784.784,0,0,0,.045-.089A.054.054,0,0,1,11.046,15.918ZM8.622,5.592a4.355,4.355,0,0,0-.854.317c-.144,1.341-.258,3.2-.334,5.59-.029.917-.065,1.633-.109,2.234a4.414,4.414,0,0,0,2.332.707c-.116-.866-.233-1.938-.35-3.241C9.088,8.788,8.856,6.911,8.622,5.592Zm5.208,2.6a4.461,4.461,0,0,0-4.1-2.735,4.641,4.641,0,0,0-.467.024c.236,1.336.472,3.231.692,5.664.119,1.318.236,2.4.353,3.263a4.4,4.4,0,0,0,1.223-.345c.147-.815.3-1.743.448-2.739A9.172,9.172,0,0,1,12.587,8.9a1.3,1.3,0,0,1,.646-.7A.877.877,0,0,1,13.831,8.188Zm.275.9a2.614,2.614,0,0,0-.214-.157c-.159-.1-.292-.183-.42-.132s-.2.175-.3.376a8.551,8.551,0,0,0-.554,2.24c-.121.793-.24,1.542-.359,2.228a4.5,4.5,0,0,0,1.927-3.7A4.559,4.559,0,0,0,14.105,9.091ZM7.075,6.336a4.515,4.515,0,0,0-.367,6.917c.031-.5.057-1.078.079-1.773C6.854,9.35,6.952,7.639,7.075,6.336ZM8.391,3.98a4.445,4.445,0,0,0-.245-.768A.6.6,0,0,0,8.1,3.13a1.8,1.8,0,0,0-.114.39c-.036.171-.068.373-.1.6C8.054,4.064,8.221,4.019,8.391,3.98Z"/>
  </g>
</svg>
