<svg xmlns="http://www.w3.org/2000/svg" width="19" height="19" viewBox="0 0 19 19">
  <defs>
    <style>.a {
      fill: none;
    }

    .b {
      fill: #4A90E2;
      fill-rule: evenodd;
    }</style>
  </defs>
  <g transform="translate(-52.445)">
    <g transform="translate(52.445)">
      <rect class="a" width="19" height="19" transform="translate(0)"/>
      <g transform="translate(5.151 1.653)">
        <path class="b"
              d="M59.056,15.45a.294.294,0,0,1-.1-.195,2.636,2.636,0,0,1,.363-1.3c.355-.743.957-1.812,1.651-3.5a.3.3,0,0,1,.519-.056c.527.766,1.51,2.062,1.51,2.062a.142.142,0,0,0,.017.02.3.3,0,0,1,.074.295c-.327,1.089-.909,2.935-1.793,5.436a.3.3,0,0,1-.575-.111.811.811,0,0,0-.084-.3,5.735,5.735,0,0,0-.456-.822,15.421,15.421,0,0,0-1.119-1.515ZM60.189,3.2a1.8,1.8,0,0,1,.4-.557A3.292,3.292,0,0,1,62.028,2.1a1.044,1.044,0,0,1,.554.055A8.654,8.654,0,0,1,64.25,3.421a1.544,1.544,0,0,1,.483.864,17.244,17.244,0,0,1-.344,3.177.3.3,0,0,1-.224.233.56.56,0,0,1-.3-.112c-.44-.591-1.057-1.431-1.261-1.775a.2.2,0,0,0-.042-.05.3.3,0,0,1-.1-.271,6.969,6.969,0,0,0,.1-1.337A1.808,1.808,0,0,0,62.49,3.7a1.626,1.626,0,0,0-1.3.431,31.458,31.458,0,0,0,6.739,8.494.3.3,0,0,1,.1.266,25.452,25.452,0,0,1-.97,3.071.3.3,0,0,1-.161.149.32.32,0,0,1-.218.009.936.936,0,0,1-.3-.2A46.724,46.724,0,0,1,61.1,9.051a9.7,9.7,0,0,1-1.4-3.02.254.254,0,0,1,0-.06,8.872,8.872,0,0,1,.474-2.737A.25.25,0,0,1,60.189,3.2Z"
              transform="translate(-58.952 -2.087)"/>
      </g>
    </g>
  </g>
</svg>
