<svg xmlns="http://www.w3.org/2000/svg" width="24" height="24" viewBox="0 0 24 24"><defs><style>.a{fill:none;}.b{fill:#384c61;fill-rule:evenodd;}</style></defs><g transform="translate(-104)"><g transform="translate(104)"><rect class="a" width="24" height="24"/><g transform="translate(-1317.87 -142.771)"><path class="b" d="M1327.726,158.489a27.584,27.584,0,0,0,.236-3.347c.135-4.394.425-6.951.756-7.789a.91.91,0,0,1,.857-.694.992.992,0,0,1,.81.694c.378.857.8,3.375,1.154,7.449.175,1.967.344,3.369.513,4.3.229-1.018.473-2.484.716-4.15a9.88,9.88,0,0,1,.641-2.6,1.215,1.215,0,0,1,.79-.734,1.294,1.294,0,0,1,1.242.583c.311.369.648.934,1.013,1.408a2.735,2.735,0,0,0,.459.485.423.423,0,0,0,.25.119h2.734a.625.625,0,0,1,0,1.25h-2.734a1.655,1.655,0,0,1-.979-.351,4.73,4.73,0,0,1-.945-1.046c-.23-.326-.567-.767-.763-1.025l-.061.152a11.687,11.687,0,0,0-.405,1.943c-.3,2-.587,3.718-.864,4.756a3.823,3.823,0,0,1-.452,1.118.821.821,0,0,1-.7.377.76.76,0,0,1-.547-.249,2.259,2.259,0,0,1-.452-.97,37.333,37.333,0,0,1-.7-5.26c-.229-2.608-.466-4.542-.7-5.766-.169,1.26-.3,3.262-.385,6.034a21.864,21.864,0,0,1-.358,3.976,1.778,1.778,0,0,1-.4.822.794.794,0,0,1-.621.253,1.015,1.015,0,0,1-.7-.354c-.493-.515-1.148-2.119-1.938-3.322a4.08,4.08,0,0,0-.689-.852.751.751,0,0,0-.479-.237h-4.078a.625.625,0,1,1,0-1.25h4.071a2.234,2.234,0,0,1,1.64.878,12.8,12.8,0,0,1,1.546,2.5C1327.368,157.89,1327.564,158.22,1327.726,158.489Z"/></g></g></g></svg>