<svg xmlns="http://www.w3.org/2000/svg" xmlns:xlink="http://www.w3.org/1999/xlink" width="30" height="18.75" viewBox="0 0 30 18.75"><defs><style>.a{fill:#f2f7fb;}.b{clip-path:url(#a);}.c{fill:none;}.d{fill:#fff;fill-rule:evenodd;}</style><clipPath id="a"><rect class="a" width="30" height="18.75"/></clipPath></defs><g class="b"><g transform="translate(5.625)"><g transform="translate(0)"><rect class="c" width="18.75" height="18.75"/><g transform="translate(3.037 1.544)"><path class="d" d="M4106.422,100.577c1.6,1.3,6.3,2.65,6.3,2.65s-.621,3.9-1.087,7.084-5.3,5.9-5.3,5.9-4.737-2.718-5.2-5.9-1.088-7.084-1.088-7.084,4.77-1.372,6.338-2.677Zm-.741,6.409v-1.139a.4.4,0,0,1,.4-.4h.62a.4.4,0,0,1,.4.4v1.139h1.139a.4.4,0,0,1,.4.4V108a.4.4,0,0,1-.4.4h-1.139v1.139a.4.4,0,0,1-.4.4h-.62a.4.4,0,0,1-.4-.4V108.4h-1.139a.4.4,0,0,1-.4-.4v-.62a.4.4,0,0,1,.4-.4Z" transform="translate(-4100.05 -100.55)"/></g></g></g></g></svg>