<svg xmlns="http://www.w3.org/2000/svg" width="26.901" height="24" viewBox="0 0 26.901 24"><defs><style>.a{fill:#fff;}</style></defs><path class="a" d="M7.912,157.195l4.747-2.571v-4.205l-4.747,2.2Zm-.791-6.08,4.995-2.317L7.121,146.48,2.126,148.8Zm13.451,6.08,4.747-2.571v-4.205l-4.747,2.2Zm-.791-6.08,4.994-2.317L19.78,146.48,14.786,148.8Zm-5.539-3.924,4.747-2.21v-3.562l-4.747,2.2v3.576Zm-.791-5.076,5.452-2.531-5.452-2.531L8,139.583ZM26.9,149.052v5.572a1.792,1.792,0,0,1-.235.9,1.562,1.562,0,0,1-.643.63l-5.538,3a1.418,1.418,0,0,1-1.409,0l-5.538-3a.259.259,0,0,1-.087-.054.259.259,0,0,1-.087.054l-5.538,3a1.418,1.418,0,0,1-1.409,0l-5.538-3a1.562,1.562,0,0,1-.643-.63,1.792,1.792,0,0,1-.235-.9v-5.572a1.745,1.745,0,0,1,.266-.937,1.7,1.7,0,0,1,.7-.643L6.33,144.98v-5.357a1.745,1.745,0,0,1,.266-.937,1.7,1.7,0,0,1,.7-.643l5.538-2.572a1.495,1.495,0,0,1,1.236,0l5.538,2.572a1.7,1.7,0,0,1,.7.643,1.745,1.745,0,0,1,.266.938v5.357l5.365,2.491a1.642,1.642,0,0,1,.7.643A1.776,1.776,0,0,1,26.9,149.052Z" transform="translate(0 -135.338)"/></svg>