<svg xmlns="http://www.w3.org/2000/svg" width="25.211" height="25" viewBox="0 0 25.211 25"><defs><style>.a{fill:none;}.b{fill:#fff;}</style></defs><path class="a" d="M0,0H25.009V25H0Z"/><path class="b" d="M10,8a3,3,0,1,1,3,3A3,3,0,0,1,10,8ZM0,4A4,4,0,1,1,4,8,4,4,0,0,1,0,4Z" transform="translate(6.211 3.077)"/><path class="b" d="M20.526,8a9.625,9.625,0,0,0-2.093-6,7.817,7.817,0,0,1,4.605,1.348A5.249,5.249,0,0,1,25.132,7.4a.6.6,0,0,1-.14.454A.581.581,0,0,1,24.563,8ZM.761,8C.5,8-.022,7.459,0,7.2.406,2.426,4.463,0,9.407,0c5.014,0,9.134,2.293,9.441,7.2a.7.7,0,0,1-.787.8Z" transform="translate(0.077 14.201)"/></svg>