<svg xmlns="http://www.w3.org/2000/svg" width="24" height="24" viewBox="0 0 24 24"><defs><style>.a{fill:#50e3c2;}</style></defs><path class="a" d="M-2648.849,974.151a12.093,12.093,0,0,1-2.418-.244,11.944,11.944,0,0,1-2.252-.7,12,12,0,0,1-2.038-1.106,12.081,12.081,0,0,1-1.776-1.465,12.069,12.069,0,0,1-1.465-1.776,11.993,11.993,0,0,1-1.106-2.038,11.935,11.935,0,0,1-.7-2.253,12.082,12.082,0,0,1-.244-2.418,12.082,12.082,0,0,1,.244-2.418,11.934,11.934,0,0,1,.7-2.253,11.991,11.991,0,0,1,1.106-2.038,12.069,12.069,0,0,1,1.465-1.776,12.077,12.077,0,0,1,1.776-1.465,12,12,0,0,1,2.038-1.106,11.939,11.939,0,0,1,2.252-.7,12.09,12.09,0,0,1,2.418-.244,12.086,12.086,0,0,1,2.418.244,11.934,11.934,0,0,1,2.252.7,12,12,0,0,1,2.039,1.106,12.089,12.089,0,0,1,1.776,1.465,12.084,12.084,0,0,1,1.465,1.776,12.008,12.008,0,0,1,1.106,2.038,11.955,11.955,0,0,1,.7,2.253,12.1,12.1,0,0,1,.244,2.418,12.1,12.1,0,0,1-.244,2.418,11.956,11.956,0,0,1-.7,2.253,12.007,12.007,0,0,1-1.106,2.038,12.084,12.084,0,0,1-1.465,1.776,12.094,12.094,0,0,1-1.776,1.465,12.007,12.007,0,0,1-2.039,1.106,11.938,11.938,0,0,1-2.252.7A12.091,12.091,0,0,1-2648.849,974.151Zm-5.895-13.031-1.894,1.894,5.241,5.252,10.337-10.337-1.894-1.894-8.437,8.437Z" transform="translate(2660.849 -950.151)"/></svg>